<svg width="343" height="445" viewBox="0 0 343 445" fill="none" xmlns="http://www.w3.org/2000/svg">
<path d="M342.569 50.4502L260.281 355.417L260.382 355.559L245.163 416.978L134.064 255.739L83.166 444.999L36.793 430.268L109.988 161.589L113.424 148.544L224.298 304.729L295.416 38.5967L342.569 50.4502ZM200.119 157.128L243.228 0.424805L290.666 11.2305L237.61 210.248L237.685 210.354L219.993 282.579L218.806 280.785L218.74 281.033L216.953 277.985L107.229 112.198L46.1719 337.045L0 324.348L75.9121 51.1924L89.2217 0L200.119 157.128ZM233.341 308.326L258.909 315.516L266.251 288.519L240.683 281.329L233.341 308.326ZM18.3076 307.402L40.4395 313.523L46.7959 290.54L24.6641 284.42L18.3076 307.402ZM43.2783 264.537C43.1094 264.49 42.9284 264.512 42.7754 264.598C42.6223 264.684 42.5094 264.827 42.4619 264.996L41.4482 268.61C41.3217 269.061 41.3799 269.545 41.6094 269.953C41.8389 270.361 42.221 270.662 42.6719 270.788L42.8594 270.841C41.8083 273.999 40.3391 276.088 39.2676 277.302C39.3793 277.551 39.5103 277.792 39.6592 278.021C40.0393 278.605 40.2534 279.408 40.0215 280.235C39.8488 280.851 39.4647 281.348 38.9697 281.674L44.6387 283.265C45.5971 283.532 46.5915 282.974 46.8604 282.016C46.9717 281.619 46.9404 281.215 46.8232 280.861C46.4947 279.865 45.6566 276.628 46.7363 271.929L46.9238 271.98C47.3747 272.107 47.8573 272.05 48.2656 271.82C48.674 271.591 48.975 271.208 49.1016 270.757L50.1152 267.144C50.1627 266.974 50.1407 266.793 50.0547 266.64C49.9686 266.487 49.8253 266.374 49.6562 266.326L49.4434 266.267C49.218 266.204 48.9765 266.233 48.7725 266.348C48.5684 266.462 48.4177 266.653 48.3545 266.879L48.0566 267.941C48.0092 268.111 47.8963 268.254 47.7432 268.34C47.59 268.426 47.4093 268.448 47.2402 268.4C47.0711 268.353 46.9279 268.24 46.8418 268.087C46.7558 267.934 46.7338 267.753 46.7812 267.584L47.0791 266.521C47.1422 266.295 47.1137 266.054 46.999 265.85C46.8843 265.646 46.6932 265.495 46.4678 265.432C46.2423 265.368 46.001 265.398 45.7969 265.513C45.5927 265.627 45.4422 265.818 45.3789 266.044L45.0801 267.106C45.0326 267.276 44.9207 267.42 44.7676 267.506C44.6144 267.592 44.4328 267.613 44.2637 267.565C44.0946 267.518 43.9512 267.405 43.8652 267.252C43.7794 267.099 43.7573 266.918 43.8047 266.749L44.1035 265.687C44.1668 265.461 44.1372 265.219 44.0225 265.015C43.9077 264.811 43.7166 264.661 43.4912 264.598L43.2783 264.537ZM37.8604 266.687C37.2692 266.521 36.6417 266.535 36.0586 266.728C35.4756 266.92 34.9627 267.281 34.5859 267.766C34.2091 268.25 33.9859 268.837 33.9434 269.449C33.9008 270.062 34.0415 270.673 34.3477 271.205L33.8779 271.073C33.5397 270.978 33.1774 271.021 32.8711 271.193C32.5648 271.365 32.339 271.653 32.2441 271.991C32.1494 272.329 32.1932 272.692 32.3652 272.998C32.5373 273.304 32.824 273.529 33.1621 273.624L33.4766 273.712C32.7271 275.144 31.4889 275.903 30.8105 276.229C30.3687 276.44 29.9689 276.833 29.8174 277.373C29.7582 277.584 29.7415 277.805 29.7676 278.022C29.7936 278.24 29.8624 278.451 29.9697 278.642C30.0771 278.833 30.2212 279.001 30.3936 279.137C30.5658 279.272 30.7628 279.372 30.9736 279.432L37.1133 281.153C37.3243 281.213 37.5451 281.23 37.7627 281.204C37.9803 281.178 38.1908 281.109 38.3818 281.002C38.5729 280.895 38.7415 280.75 38.877 280.578C39.0124 280.406 39.1127 280.208 39.1719 279.997C39.3232 279.457 39.1862 278.914 38.9189 278.503C38.5088 277.872 37.8461 276.58 37.9502 274.967L38.2646 275.056C38.6029 275.15 38.9652 275.107 39.2715 274.935C39.5776 274.762 39.8026 274.476 39.8975 274.138C39.9924 273.799 39.9495 273.437 39.7773 273.131C39.6053 272.825 39.3185 272.6 38.9805 272.505L38.5107 272.373C39.049 272.078 39.4873 271.628 39.7695 271.083C40.0515 270.538 40.1644 269.921 40.0947 269.312C40.025 268.702 39.776 268.126 39.3779 267.658C38.9799 267.191 38.4514 266.853 37.8604 266.687ZM260.213 259.165C260.044 259.118 259.862 259.14 259.709 259.226C259.556 259.312 259.444 259.455 259.396 259.624L258.383 263.238C258.256 263.689 258.314 264.172 258.543 264.58C258.772 264.988 259.155 265.289 259.606 265.416L259.793 265.468C258.742 268.626 257.273 270.715 256.201 271.929C256.313 272.178 256.444 272.419 256.593 272.648C256.973 273.232 257.188 274.036 256.956 274.863C256.783 275.479 256.398 275.976 255.903 276.302L261.572 277.892C262.531 278.16 263.526 277.601 263.795 276.643C263.906 276.246 263.874 275.842 263.757 275.488C263.428 274.491 262.591 271.255 263.671 266.556L263.857 266.608C264.308 266.735 264.792 266.677 265.2 266.447C265.608 266.218 265.909 265.836 266.035 265.385L267.05 261.771C267.097 261.602 267.075 261.421 266.989 261.268C266.903 261.115 266.76 261.002 266.591 260.954L266.378 260.895C266.153 260.831 265.911 260.86 265.707 260.975C265.503 261.089 265.352 261.28 265.289 261.506L264.991 262.569C264.944 262.738 264.831 262.882 264.678 262.968C264.525 263.054 264.343 263.076 264.174 263.028C264.005 262.981 263.861 262.868 263.775 262.715C263.689 262.562 263.667 262.38 263.715 262.211L264.014 261.148C264.077 260.923 264.047 260.682 263.933 260.478C263.818 260.273 263.627 260.123 263.401 260.06C263.176 259.996 262.935 260.025 262.73 260.14C262.526 260.254 262.376 260.446 262.312 260.671L262.015 261.734C261.967 261.904 261.854 262.047 261.701 262.133C261.548 262.219 261.367 262.241 261.198 262.193C261.029 262.146 260.885 262.033 260.799 261.88C260.713 261.727 260.692 261.546 260.739 261.377L261.037 260.313C261.1 260.088 261.072 259.847 260.957 259.643C260.842 259.438 260.651 259.288 260.426 259.225L260.213 259.165ZM254.794 261.314C254.203 261.149 253.576 261.163 252.993 261.355C252.41 261.548 251.897 261.909 251.521 262.394C251.144 262.878 250.92 263.464 250.877 264.076C250.834 264.689 250.975 265.3 251.281 265.832L250.812 265.7C250.473 265.606 250.112 265.649 249.806 265.821C249.499 265.993 249.274 266.28 249.179 266.618C249.084 266.956 249.127 267.319 249.299 267.625C249.471 267.931 249.758 268.157 250.097 268.252L250.41 268.34C249.661 269.772 248.422 270.53 247.744 270.855C247.302 271.067 246.903 271.461 246.752 272.001C246.693 272.212 246.675 272.433 246.701 272.65C246.727 272.868 246.796 273.078 246.903 273.27C247.011 273.461 247.155 273.628 247.327 273.764C247.499 273.899 247.697 273.999 247.908 274.059L254.048 275.781C254.259 275.84 254.48 275.857 254.697 275.831C254.915 275.805 255.125 275.736 255.316 275.629C255.507 275.522 255.675 275.377 255.811 275.205C255.946 275.033 256.046 274.836 256.105 274.625C256.257 274.085 256.121 273.541 255.854 273.13C255.443 272.499 254.78 271.208 254.884 269.595L255.198 269.683C255.536 269.777 255.899 269.735 256.205 269.562C256.511 269.39 256.737 269.104 256.832 268.766C256.927 268.427 256.883 268.065 256.711 267.759C256.539 267.452 256.252 267.227 255.914 267.132L255.444 267C255.983 266.705 256.421 266.256 256.703 265.711C256.985 265.166 257.099 264.548 257.029 263.938C256.96 263.329 256.709 262.753 256.312 262.286C255.913 261.819 255.385 261.481 254.794 261.314ZM33.1406 253.774L55.2734 259.896L61.6289 236.912L39.4971 230.792L33.1406 253.774ZM250.469 245.331L276.037 252.521L283.38 225.523L257.812 218.334L250.469 245.331ZM61.5664 211.22C61.374 211.192 61.1777 211.202 60.9893 211.251C60.801 211.3 60.6243 211.386 60.4688 211.505C60.3131 211.623 60.1812 211.771 60.082 211.941L51.8262 226.093C51.6259 226.436 51.5688 226.847 51.666 227.233C51.7632 227.62 52.0072 227.952 52.3447 228.155C52.6825 228.359 53.0864 228.418 53.4668 228.319C53.8471 228.22 54.1728 227.971 54.373 227.628L62.6289 213.479C62.7281 213.309 62.7937 213.12 62.8213 212.925C62.8489 212.729 62.8382 212.529 62.79 212.338C62.7419 212.146 62.6567 211.966 62.54 211.808C62.4235 211.65 62.2774 211.517 62.1104 211.416C61.9432 211.315 61.7589 211.248 61.5664 211.22ZM63.3477 215.562C63.1505 215.586 62.9601 215.651 62.7881 215.752C62.6161 215.853 62.4653 215.988 62.3457 216.149C62.2262 216.311 62.1399 216.495 62.0918 216.691C62.0438 216.887 62.0344 217.092 62.0654 217.291C62.0966 217.491 62.1671 217.682 62.2725 217.854L64.4922 221.765L60.6465 224.022C60.4782 224.121 60.3302 224.252 60.2119 224.409C60.0936 224.566 60.0073 224.746 59.957 224.937C59.9068 225.127 59.8935 225.327 59.9189 225.522C59.9444 225.718 60.0074 225.907 60.1045 226.078C60.2017 226.249 60.3312 226.399 60.4854 226.52C60.6396 226.64 60.8161 226.728 61.0039 226.779C61.1916 226.83 61.3874 226.843 61.5801 226.817C61.7727 226.792 61.9587 226.728 62.127 226.629L67.2539 223.618C67.5938 223.419 67.8418 223.09 67.9434 222.704C68.0449 222.319 67.992 221.908 67.7959 221.562L64.835 216.35C64.7417 216.171 64.6144 216.013 64.46 215.886C64.3055 215.758 64.1266 215.664 63.9355 215.608C63.7447 215.553 63.5447 215.537 63.3477 215.562ZM52.876 212.753C52.6832 212.779 52.4965 212.843 52.3281 212.942L47.2012 215.953C46.8618 216.153 46.6142 216.481 46.5127 216.866C46.4112 217.251 46.4644 217.661 46.6602 218.007L49.6211 223.222C49.8173 223.567 50.1405 223.819 50.5195 223.923C50.8987 224.026 51.3026 223.972 51.6426 223.772C51.9825 223.573 52.2313 223.245 52.333 222.859C52.4347 222.474 52.3808 222.063 52.1846 221.717L49.9648 217.807L53.8086 215.548C54.1482 215.348 54.3955 215.019 54.4971 214.634C54.5985 214.249 54.5463 213.839 54.3506 213.493C54.2535 213.322 54.1247 213.172 53.9707 213.052C53.8165 212.931 53.6399 212.843 53.4521 212.792C53.2645 212.741 53.0686 212.727 52.876 212.753ZM277.699 196.84C277.507 196.812 277.31 196.822 277.122 196.871C276.934 196.92 276.756 197.007 276.601 197.125C276.445 197.243 276.314 197.392 276.215 197.562L267.959 211.713C267.759 212.056 267.701 212.467 267.798 212.854C267.895 213.24 268.14 213.572 268.478 213.775C268.815 213.979 269.218 214.038 269.599 213.939C269.979 213.841 270.306 213.591 270.506 213.248L278.761 199.099C278.86 198.929 278.925 198.741 278.953 198.545C278.981 198.349 278.97 198.15 278.922 197.958C278.874 197.767 278.789 197.587 278.673 197.429C278.556 197.27 278.41 197.137 278.242 197.036L278.243 197.035C278.076 196.934 277.891 196.868 277.699 196.84ZM279.479 201.182C279.282 201.206 279.092 201.271 278.92 201.372C278.748 201.473 278.597 201.609 278.478 201.771C278.358 201.932 278.272 202.116 278.224 202.312C278.176 202.508 278.167 202.712 278.198 202.912C278.229 203.112 278.3 203.302 278.405 203.474L280.624 207.385L276.778 209.643C276.61 209.741 276.463 209.873 276.345 210.029C276.226 210.186 276.139 210.366 276.089 210.557C276.039 210.747 276.026 210.947 276.052 211.143C276.077 211.338 276.14 211.527 276.237 211.698C276.335 211.869 276.464 212.019 276.618 212.14C276.772 212.26 276.948 212.348 277.136 212.399C277.324 212.451 277.52 212.463 277.713 212.438C277.905 212.412 278.092 212.348 278.26 212.249L283.387 209.238C283.726 209.039 283.975 208.71 284.076 208.324C284.178 207.939 284.124 207.528 283.928 207.183L280.967 201.97C280.874 201.791 280.746 201.634 280.592 201.507C280.437 201.38 280.259 201.285 280.068 201.229C279.877 201.174 279.677 201.157 279.479 201.182ZM269.008 198.373C268.815 198.399 268.629 198.464 268.461 198.562L263.334 201.573C262.994 201.773 262.746 202.101 262.645 202.486C262.543 202.872 262.596 203.282 262.792 203.628L265.753 208.842C265.949 209.187 266.272 209.44 266.651 209.543C267.031 209.646 267.435 209.592 267.775 209.393C268.115 209.193 268.363 208.865 268.465 208.479C268.567 208.094 268.514 207.683 268.317 207.337L266.097 203.427L269.941 201.168C270.281 200.968 270.528 200.639 270.63 200.254C270.731 199.869 270.678 199.459 270.482 199.113C270.385 198.942 270.257 198.792 270.103 198.672C269.948 198.551 269.772 198.463 269.584 198.412C269.396 198.361 269.201 198.347 269.008 198.373ZM47.9678 200.146L70.0996 206.268L76.4561 183.284L54.3242 177.164L47.9678 200.146ZM267.603 182.338L293.171 189.527L300.514 162.53L274.945 155.341L267.603 182.338ZM72.9238 155.686C72.7548 155.638 72.574 155.66 72.4209 155.746C72.2678 155.832 72.1549 155.975 72.1074 156.145L71.0938 159.759C70.9673 160.21 71.0246 160.692 71.2539 161.101C71.4834 161.509 71.8663 161.81 72.3174 161.937L72.5039 161.989C71.4528 165.148 69.9836 167.236 68.9121 168.45C69.0238 168.7 69.1549 168.941 69.3037 169.17C69.6838 169.754 69.899 170.557 69.667 171.384C69.4943 171.999 69.1102 172.496 68.6152 172.822L74.2832 174.412C75.2417 174.68 76.2369 174.122 76.5059 173.164C76.6172 172.767 76.5849 172.364 76.4678 172.01C76.1392 171.013 75.302 167.776 76.3818 163.076L76.5684 163.129C77.0193 163.255 77.5028 163.198 77.9111 162.969C78.3195 162.739 78.6205 162.356 78.7471 161.905L79.7607 158.291C79.808 158.122 79.7861 157.941 79.7002 157.788C79.6142 157.635 79.4708 157.522 79.3018 157.475L79.0889 157.415C78.8635 157.352 78.6221 157.381 78.418 157.495C78.2138 157.61 78.0633 157.802 78 158.027L77.7021 159.09C77.6547 159.259 77.5418 159.402 77.3887 159.488C77.2355 159.574 77.0539 159.596 76.8848 159.549C76.7158 159.501 76.5723 159.388 76.4863 159.235C76.4004 159.082 76.3794 158.901 76.4268 158.732L76.7246 157.669C76.7878 157.444 76.7591 157.202 76.6445 156.998C76.5298 156.794 76.3378 156.643 76.1123 156.58C75.8869 156.517 75.6455 156.546 75.4414 156.66C75.2372 156.775 75.0867 156.967 75.0234 157.192L74.7256 158.255C74.6781 158.424 74.5653 158.567 74.4121 158.653C74.259 158.739 74.0782 158.761 73.9092 158.714C73.74 158.666 73.5968 158.554 73.5107 158.4C73.4247 158.247 73.4028 158.067 73.4502 157.897L73.748 156.834C73.8112 156.609 73.7827 156.367 73.668 156.163C73.5533 155.959 73.3622 155.808 73.1367 155.745L72.9238 155.686ZM67.5049 157.835C66.9138 157.67 66.287 157.684 65.7041 157.876C65.121 158.068 64.6083 158.429 64.2314 158.914C63.8546 159.399 63.6304 159.985 63.5879 160.598C63.5454 161.21 63.6861 161.822 63.9922 162.354L63.5234 162.222C63.1853 162.127 62.8228 162.17 62.5166 162.342C62.2104 162.514 61.9846 162.801 61.8896 163.139C61.7948 163.477 61.8387 163.839 62.0107 164.146C62.1828 164.452 62.4693 164.678 62.8076 164.772L63.1211 164.86C62.3716 166.293 61.1334 167.051 60.4551 167.376C60.0132 167.588 59.6144 167.982 59.4629 168.521C59.4037 168.733 59.386 168.953 59.4121 169.171C59.4382 169.389 59.5069 169.599 59.6143 169.79C59.7216 169.981 59.8659 170.149 60.0381 170.284C60.2104 170.42 60.4081 170.52 60.6191 170.579L66.7588 172.302C66.9698 172.361 67.1906 172.378 67.4082 172.352C67.6257 172.325 67.8363 172.257 68.0273 172.149C68.2181 172.042 68.3862 171.899 68.5215 171.727C68.6569 171.554 68.7572 171.357 68.8164 171.146C68.9678 170.606 68.8316 170.062 68.5645 169.651C68.1543 169.021 67.4906 167.729 67.5947 166.115L67.9092 166.204C68.2474 166.299 68.6097 166.255 68.916 166.083C69.2223 165.911 69.4481 165.624 69.543 165.286C69.6379 164.948 69.594 164.586 69.4219 164.279C69.2498 163.973 68.9632 163.747 68.625 163.652L68.1562 163.521C68.6943 163.225 69.132 162.776 69.4141 162.231C69.6963 161.686 69.81 161.069 69.7402 160.459C69.6704 159.849 69.4204 159.274 69.0225 158.807C68.6244 158.339 68.0959 158.001 67.5049 157.835ZM63.0361 145.668L85.1689 151.788L91.2891 129.656L69.1572 123.536L63.0361 145.668ZM295.735 131.563C295.566 131.516 295.385 131.537 295.231 131.623C295.078 131.709 294.965 131.853 294.918 132.022L293.904 135.636C293.778 136.087 293.836 136.57 294.065 136.979C294.295 137.387 294.677 137.687 295.128 137.813L295.315 137.866C294.264 141.025 292.795 143.113 291.724 144.327C291.835 144.577 291.966 144.817 292.115 145.047C292.495 145.631 292.71 146.434 292.478 147.262C292.305 147.877 291.921 148.374 291.426 148.7L297.095 150.29C298.053 150.558 299.049 149.999 299.317 149.041C299.429 148.644 299.396 148.241 299.279 147.887C298.951 146.89 298.113 143.654 299.192 138.954L299.38 139.007C299.831 139.133 300.314 139.075 300.723 138.846C301.131 138.616 301.431 138.234 301.558 137.783L302.571 134.169C302.619 134 302.597 133.818 302.511 133.665C302.425 133.512 302.281 133.4 302.112 133.353L301.9 133.293C301.675 133.23 301.433 133.258 301.229 133.373C301.025 133.488 300.875 133.679 300.812 133.904L300.513 134.968C300.465 135.137 300.352 135.28 300.199 135.366C300.046 135.452 299.865 135.473 299.696 135.426C299.527 135.378 299.384 135.266 299.298 135.113C299.212 134.96 299.19 134.779 299.237 134.609L299.535 133.547C299.598 133.321 299.57 133.079 299.455 132.875C299.34 132.671 299.149 132.521 298.924 132.458C298.698 132.395 298.457 132.423 298.253 132.538C298.049 132.653 297.898 132.844 297.835 133.069L297.537 134.133C297.49 134.302 297.377 134.445 297.224 134.531C297.07 134.617 296.889 134.639 296.72 134.592C296.551 134.544 296.407 134.431 296.321 134.278C296.235 134.125 296.213 133.944 296.261 133.774L296.56 132.712C296.623 132.486 296.593 132.245 296.479 132.041C296.364 131.837 296.173 131.686 295.947 131.623L295.735 131.563ZM290.316 133.712C289.725 133.546 289.098 133.561 288.515 133.753C287.932 133.945 287.419 134.307 287.042 134.792C286.665 135.277 286.442 135.862 286.399 136.475C286.357 137.087 286.498 137.698 286.804 138.23L286.334 138.099C285.996 138.004 285.633 138.048 285.327 138.22C285.021 138.392 284.796 138.678 284.701 139.017C284.606 139.355 284.649 139.717 284.821 140.023C284.993 140.33 285.28 140.555 285.618 140.65L285.933 140.738C285.183 142.171 283.945 142.929 283.267 143.254C282.825 143.466 282.425 143.859 282.273 144.399C282.214 144.61 282.198 144.831 282.224 145.048C282.25 145.265 282.318 145.476 282.426 145.667C282.533 145.858 282.677 146.027 282.85 146.162C283.022 146.297 283.219 146.398 283.43 146.457L289.569 148.179C289.78 148.238 290.001 148.256 290.219 148.229C290.436 148.203 290.647 148.135 290.838 148.027C291.029 147.92 291.198 147.776 291.333 147.604C291.468 147.431 291.569 147.233 291.628 147.022C291.779 146.483 291.642 145.939 291.375 145.528C290.965 144.898 290.302 143.606 290.406 141.993L290.721 142.081C291.059 142.176 291.421 142.133 291.728 141.961C292.034 141.789 292.26 141.501 292.354 141.163C292.449 140.825 292.405 140.462 292.233 140.156C292.061 139.85 291.775 139.625 291.437 139.53L290.967 139.398C291.505 139.103 291.943 138.655 292.226 138.109C292.508 137.564 292.622 136.947 292.552 136.337C292.482 135.727 292.232 135.152 291.834 134.685C291.436 134.217 290.907 133.878 290.316 133.712ZM285.01 118.344L310.578 125.533L317.649 99.5352L292.081 92.3457L285.01 118.344ZM90.7158 103.472C90.5234 103.444 90.327 103.454 90.1387 103.503C89.9504 103.552 89.7737 103.638 89.6182 103.757C89.4627 103.875 89.3316 104.023 89.2324 104.193L80.9766 118.345C80.7763 118.688 80.7182 119.099 80.8154 119.485C80.9126 119.872 81.1566 120.204 81.4941 120.407C81.8319 120.611 82.2358 120.67 82.6162 120.571C82.9966 120.472 83.3222 120.223 83.5225 119.88L91.7783 105.73C91.8775 105.56 91.9431 105.372 91.9707 105.177C91.9983 104.981 91.9876 104.781 91.9395 104.59C91.8913 104.398 91.8061 104.218 91.6895 104.06C91.5729 103.902 91.4269 103.769 91.2598 103.668L91.2607 103.667C91.0936 103.566 90.9083 103.5 90.7158 103.472ZM92.4971 107.813C92.2999 107.838 92.1096 107.903 91.9375 108.004C91.7654 108.105 91.6147 108.241 91.4951 108.402C91.3757 108.564 91.2893 108.747 91.2412 108.943C91.1932 109.139 91.1847 109.343 91.2158 109.543C91.247 109.742 91.3166 109.934 91.4219 110.105L93.6416 114.017L89.7959 116.274C89.6276 116.373 89.4796 116.504 89.3613 116.661C89.243 116.818 89.1567 116.998 89.1064 117.188C89.0562 117.379 89.043 117.579 89.0684 117.774C89.0938 117.97 89.1577 118.159 89.2549 118.33C89.3521 118.501 89.4815 118.651 89.6357 118.771C89.7899 118.892 89.9656 118.98 90.1533 119.031C90.341 119.082 90.5368 119.095 90.7295 119.069C90.9221 119.044 91.1081 118.98 91.2764 118.881L96.4033 115.87C96.7432 115.671 96.9912 115.342 97.0928 114.956C97.1943 114.571 97.1415 114.16 96.9453 113.814L93.9844 108.602C93.8911 108.423 93.7638 108.265 93.6094 108.138C93.4551 108.011 93.2768 107.917 93.0859 107.861C92.8949 107.806 92.6944 107.789 92.4971 107.813ZM82.0254 105.005C81.8327 105.031 81.6468 105.096 81.4785 105.194L76.3506 108.205C76.0113 108.405 75.7636 108.733 75.6621 109.118C75.5606 109.503 75.6137 109.914 75.8096 110.26L78.7705 115.474C78.9668 115.819 79.2899 116.071 79.6689 116.175C80.0481 116.278 80.452 116.224 80.792 116.024C81.132 115.825 81.3807 115.497 81.4824 115.111C81.5841 114.726 81.5311 114.314 81.335 113.969L79.1143 110.059L82.958 107.8C83.2976 107.6 83.5459 107.271 83.6475 106.886C83.7488 106.501 83.6957 106.09 83.5 105.745C83.4029 105.574 83.2742 105.424 83.1201 105.304C82.9659 105.183 82.7894 105.095 82.6016 105.044C82.4138 104.993 82.2181 104.979 82.0254 105.005ZM312.856 68.7852C312.664 68.757 312.468 68.7675 312.279 68.8164C312.091 68.8653 311.914 68.9519 311.759 69.0703C311.603 69.1888 311.471 69.3378 311.372 69.5078L303.116 83.6592C302.916 84.0024 302.858 84.4123 302.955 84.7988C303.052 85.1856 303.297 85.5181 303.635 85.7217C303.972 85.9252 304.376 85.9836 304.757 85.8848C305.137 85.7859 305.463 85.5375 305.663 85.1943L313.919 71.0449C314.018 70.8748 314.084 70.686 314.111 70.4902C314.139 70.2946 314.128 70.0948 314.08 69.9033C314.032 69.7119 313.947 69.5321 313.83 69.374C313.713 69.2158 313.567 69.0822 313.399 68.9814L313.401 68.9805C313.234 68.8796 313.049 68.8133 312.856 68.7852ZM314.638 73.1279C314.44 73.1525 314.249 73.2173 314.077 73.3184C313.905 73.4194 313.755 73.5546 313.636 73.7158C313.516 73.8772 313.429 74.0617 313.381 74.2578C313.333 74.4538 313.324 74.6579 313.355 74.8574C313.387 75.0568 313.457 75.2477 313.562 75.4189L315.781 79.3301L311.937 81.5879C311.768 81.6868 311.62 81.8187 311.502 81.9756C311.384 82.1324 311.296 82.3111 311.246 82.502C311.196 82.6928 311.184 82.892 311.209 83.0879C311.234 83.2839 311.297 83.4734 311.395 83.6445C311.492 83.8156 311.621 83.9657 311.775 84.0859C311.93 84.2062 312.106 84.2936 312.294 84.3447C312.482 84.3958 312.677 84.4096 312.87 84.3838C313.063 84.3579 313.249 84.2932 313.417 84.1943L318.544 81.1836C318.884 80.984 319.132 80.6558 319.233 80.2705C319.335 79.885 319.282 79.4736 319.086 79.1279L316.125 73.915C316.032 73.7366 315.903 73.5794 315.749 73.4521C315.595 73.325 315.417 73.2305 315.226 73.1748C315.035 73.1191 314.835 73.1034 314.638 73.1279ZM304.165 70.3193C303.972 70.3452 303.786 70.409 303.618 70.5078L298.491 73.5186C298.152 73.7181 297.904 74.0466 297.803 74.4316C297.701 74.8169 297.754 75.2277 297.95 75.5732L300.91 80.7871C301.106 81.1329 301.43 81.3849 301.81 81.4883C302.189 81.5916 302.593 81.5383 302.933 81.3389C303.273 81.1394 303.52 80.8103 303.622 80.4248C303.724 80.0392 303.671 79.628 303.475 79.2822L301.255 75.3721L305.099 73.1133C305.438 72.9137 305.686 72.5853 305.787 72.2002C305.889 71.8149 305.836 71.4041 305.64 71.0586C305.542 70.8874 305.414 70.7375 305.26 70.6172C305.106 70.4969 304.93 70.4086 304.742 70.3574C304.554 70.3062 304.358 70.2935 304.165 70.3193Z" fill="#2963FF"/>
</svg>
