<svg width="363" height="84" viewBox="0 0 363 84" fill="none" xmlns="http://www.w3.org/2000/svg">
<path d="M221.053 9.52344L215.741 29.2061C214.762 31.4486 214.126 33.8086 213.831 36.2861L205.52 67.0898L205.539 67.1172L202.666 78.71L181.693 48.2734L172.086 84L163.332 81.2188L177.165 30.4424L177.798 28.04L198.728 57.5215L212.152 7.28516L221.053 9.52344ZM362.314 41.2256H343.957L343.832 57.0078H362.815V63.71L336.752 63.7725V34.5869L362.314 34.5244V41.2256ZM310.312 14.8594C318.165 14.8176 324.002 18.4916 328.597 22.625C333.233 26.7167 335.593 32.4368 335.677 39.7852C335.719 42.7496 335.301 45.5266 334.424 48.1152C333.547 50.662 332.335 52.8543 330.79 54.6914C329.286 56.5284 327.553 58.1359 325.59 59.5137C323.627 60.8497 321.58 61.8515 319.45 62.5195C317.362 63.1876 315.252 63.563 313.122 63.6465C311.034 63.6882 308.819 63.71 306.48 63.71H299.213C299.255 61.6642 299.275 59.6388 299.275 57.6348V34.5244L306.293 34.4619L306.355 56.9453L306.293 57.0078H311.807C316.526 56.966 320.536 55.2964 323.836 51.998C327.177 48.6997 328.764 44.5453 328.597 39.5352C328.43 34.5667 326.759 30.6209 323.585 27.6982C320.411 24.7339 316.338 23.2511 311.368 23.251L299.339 23.126L299.275 14.8594C301.28 14.9011 305.259 14.9011 310.312 14.8594ZM237.197 14.6084C239.536 14.6084 241.833 14.9009 244.089 15.4854C246.386 16.0281 248.057 16.5922 249.102 17.1768L250.73 18.0527V26.5703C250.605 26.4451 250.417 26.278 250.166 26.0693C249.957 25.8188 249.435 25.4014 248.601 24.8174C247.765 24.1911 246.867 23.6685 245.906 23.251C244.946 22.7917 243.671 22.3748 242.084 21.999C240.539 21.6233 238.93 21.4138 237.26 21.3721C235.255 21.3721 233.25 21.8107 231.245 22.6875C229.282 23.5643 227.528 24.7755 225.982 26.3203C224.437 27.8234 223.164 29.6817 222.161 31.8945C221.201 34.0656 220.678 36.3617 220.595 38.7832C220.511 41.2466 220.929 43.6265 221.848 45.9229C222.808 48.1773 224.061 50.1188 225.606 51.7471C227.194 53.3337 228.99 54.6071 230.995 55.5674C233.042 56.5277 235.088 57.0295 237.135 57.0713C238.68 57.0713 240.204 56.9043 241.708 56.5703C243.253 56.1946 244.549 55.7351 245.593 55.1924C246.637 54.6496 247.556 54.1063 248.35 53.5635C249.185 52.9791 249.79 52.4988 250.166 52.123L250.793 51.5596L250.668 60.2021C250.543 60.2857 250.313 60.4111 249.979 60.5781C249.686 60.7451 249.059 61.0376 248.099 61.4551C247.138 61.8725 246.157 62.2481 245.154 62.582C244.152 62.8743 242.877 63.1252 241.332 63.334C239.787 63.5844 238.242 63.6882 236.696 63.6465C234.524 63.563 232.331 63.1668 230.117 62.457C227.945 61.7472 225.857 60.6822 223.853 59.2627C221.848 57.8432 220.073 56.1942 218.527 54.3154C217.024 52.4367 215.812 50.2027 214.894 47.6143C214.016 44.9838 213.598 42.1861 213.64 39.2217C213.681 35.631 214.392 32.2701 215.771 29.1387C217.149 26.0072 218.944 23.4179 221.158 21.3721C223.372 19.2845 225.878 17.6564 228.677 16.4873C231.475 15.2765 234.315 14.6502 237.197 14.6084ZM194.163 29.6602L202.301 0.0800781L211.255 2.12012L201.239 39.6865L201.254 39.707L197.914 53.3408L197.689 53.002L197.678 53.0488L197.343 52.4775L176.628 21.1787L165.103 63.6221L156.387 61.2256L158.469 53.7305C158.962 52.6105 159.261 51.5465 159.357 50.5352L170.717 9.66211L173.229 0L194.163 29.6602ZM273.912 14.6709C273.995 14.6294 274.1 14.6294 274.225 14.6709C278.026 14.6709 281.472 15.3812 284.562 16.8008C287.695 18.1785 290.243 20.0153 292.206 22.3115C294.169 24.6079 295.673 27.1557 296.717 29.9531C297.803 32.7087 298.388 35.5689 298.472 38.5332C298.639 43.0423 297.657 47.2175 295.527 51.0586C293.439 54.8998 290.493 57.9475 286.692 60.2021C282.892 62.4567 278.694 63.5632 274.1 63.5215C269.338 63.4797 265.057 62.3525 261.256 60.1396C257.497 57.9268 254.594 55.0045 252.547 51.3721C250.5 47.7396 249.414 43.7307 249.289 39.3467C249.164 36.3824 249.665 33.4599 250.793 30.5791C251.921 27.6564 253.508 25.0256 255.555 22.6875C257.643 20.3077 260.275 18.3871 263.449 16.9258C266.665 15.4228 270.153 14.6709 273.912 14.6709ZM144.792 14.3271C146.569 14.3271 148.219 14.5987 149.742 15.1406C151.265 15.6409 152.557 16.3287 153.614 17.2041C154.672 18.0793 155.539 18.9549 156.216 19.8301C156.893 20.7055 157.485 21.6233 157.993 22.582L152.154 26.2715C152.112 26.1465 152.048 25.9796 151.964 25.7715C151.879 25.5213 151.646 25.1038 151.266 24.5205C150.885 23.937 150.461 23.4155 149.996 22.957C149.531 22.4986 148.896 22.0811 148.093 21.7061C147.331 21.3309 146.484 21.1436 145.554 21.1436C143.692 21.1019 142 21.5816 140.477 22.582C138.996 23.5825 138.214 25.0841 138.129 27.085C138.044 28.2518 138.382 29.2732 139.144 30.1484C139.947 30.9822 140.985 31.67 142.254 32.2119C143.565 32.7122 145.004 33.2335 146.569 33.7754C148.135 34.2757 149.679 34.9436 151.202 35.7773C152.767 36.5693 154.185 37.5279 155.454 38.6533C156.723 39.7372 157.718 41.2595 158.438 43.2188C159.199 45.178 159.517 47.4507 159.39 50.0352C159.347 51.4107 158.924 52.8907 158.12 54.4746C157.316 56.0171 156.258 57.4977 154.946 58.915C153.635 60.2907 151.963 61.4166 149.933 62.292C147.902 63.1673 146.041 63.5638 143.841 63.4805C142.022 63.3971 140.075 63.0631 138.51 62.4795C136.987 61.9375 135.717 61.2914 134.701 60.541C133.728 59.7906 132.84 58.8937 132.036 57.8516C131.275 56.8096 130.682 55.8717 130.259 55.0381C129.997 54.437 129.758 53.8248 129.536 53.2041C129.374 53.6196 129.184 54.0437 128.966 54.4746C128.162 56.017 127.104 57.4977 125.793 58.915C124.481 60.2907 122.81 61.4165 120.779 62.292C118.749 63.1674 116.633 63.5638 114.433 63.4805C112.613 63.3971 110.921 63.0631 109.355 62.4795C107.832 61.9375 106.562 61.2914 105.547 60.541C104.574 59.7906 103.686 58.8937 102.882 57.8516C102.12 56.8096 101.528 55.8717 101.104 55.0381C100.724 54.1627 100.385 53.2657 100.089 52.3486C99.8351 51.4318 99.6657 50.8269 99.5811 50.5352C99.5388 50.2022 99.5186 49.9518 99.5186 49.7852L105.737 45.7197C105.78 46.0115 105.843 46.3873 105.928 46.8457C106.055 47.3042 106.33 48.1381 106.753 49.3467C107.218 50.5138 107.726 51.5774 108.276 52.5361C108.869 53.4532 109.672 54.3294 110.688 55.1631C111.745 55.9969 112.909 56.4765 114.179 56.6016C114.898 56.6849 115.702 56.6641 116.59 56.5391C117.478 56.3723 118.389 56.1008 119.319 55.7256C120.292 55.3087 121.096 54.6624 121.73 53.7871C122.407 52.87 122.788 51.7857 122.873 50.5352C122.992 48.6984 122.72 47.1178 122.059 45.7939L121.783 45.2705C121.077 43.9783 120.128 42.9604 118.938 42.2178C117.669 41.3841 116.252 40.6546 114.687 40.0293C113.121 39.3623 111.555 38.6745 109.99 37.9658C108.425 37.2154 107.007 36.3602 105.737 35.4014C104.468 34.4425 103.453 33.1293 102.691 31.4619C101.972 29.7528 101.676 27.7308 101.803 25.3965C101.93 23.3122 102.734 21.4142 104.215 19.7051C105.738 17.9544 107.536 16.641 109.609 15.7656C111.682 14.8487 113.692 14.3689 115.638 14.3271C117.415 14.3271 119.066 14.5987 120.589 15.1406C122.112 15.6409 123.402 16.3288 124.46 17.2041C125.517 18.0793 126.385 18.9549 127.062 19.8301C127.738 20.7055 128.331 21.6233 128.839 22.582L123 26.2715C122.958 26.1465 122.894 25.9796 122.81 25.7715C122.725 25.5213 122.492 25.1038 122.111 24.5205C121.731 23.937 121.307 23.4155 120.842 22.957C120.376 22.4986 119.742 22.0811 118.938 21.7061C118.177 21.3309 117.33 21.1436 116.399 21.1436C114.538 21.1019 112.845 21.5816 111.322 22.582C109.842 23.5824 109.059 25.0834 108.975 27.084C108.89 28.2512 109.229 29.273 109.99 30.1484C110.794 30.9821 111.83 31.67 113.1 32.2119C114.411 32.7122 115.85 33.2335 117.415 33.7754C118.98 34.2757 120.525 34.9436 122.048 35.7773C123.613 36.5693 125.031 37.5279 126.3 38.6533C127.569 39.7372 128.564 41.2595 129.283 43.2188C129.915 44.8455 130.24 46.6883 130.26 48.7461L134.892 45.7197C134.934 46.0115 134.997 46.3873 135.082 46.8457C135.209 47.3042 135.484 48.1381 135.907 49.3467C136.373 50.5138 136.881 51.5774 137.431 52.5361C138.023 53.4532 138.826 54.3293 139.842 55.1631C140.9 55.9969 142.064 56.4765 143.333 56.6016C144.052 56.6849 144.856 56.6641 145.744 56.5391C146.633 56.3723 147.543 56.1008 148.474 55.7256C149.446 55.3087 150.25 54.6624 150.885 53.7871C151.562 52.87 151.943 51.7857 152.027 50.5352C152.146 48.6985 151.875 47.1178 151.213 45.7939L150.938 45.2705C150.231 43.9783 149.283 42.9604 148.093 42.2178C146.824 41.3841 145.406 40.6546 143.841 40.0293C142.275 39.3623 140.709 38.6745 139.144 37.9658C137.578 37.2154 136.161 36.3602 134.892 35.4014C133.623 34.4425 132.607 33.1293 131.846 31.4619C131.127 29.7528 130.83 27.7308 130.957 25.3965C131.084 23.3122 131.888 21.4142 133.369 19.7051C134.892 17.9545 136.69 16.641 138.763 15.7656C140.836 14.8485 142.846 14.3689 144.792 14.3271ZM24.2715 14.3896C26.6406 14.3897 28.9674 14.682 31.252 15.2656C33.5788 15.8076 35.2713 16.3705 36.3291 16.9541L37.9795 17.8291V26.334C37.8526 26.209 37.6619 26.0423 37.4082 25.834C37.1965 25.5838 36.6672 25.1665 35.8213 24.583C34.9752 23.9578 34.0657 23.4363 33.0928 23.0195C32.1197 22.561 30.8292 22.1437 29.2217 21.7686C27.6564 21.3934 26.0272 21.1853 24.335 21.1436C22.3042 21.1436 20.2729 21.5816 18.2422 22.457C16.2538 23.3325 14.4765 24.5416 12.9111 26.084C11.3458 27.5847 10.0545 29.44 9.03906 31.6494C8.06603 33.8171 7.53781 36.1105 7.45312 38.5283C7.36851 40.9879 7.79196 43.3644 8.72266 45.6572C9.69574 47.9084 10.9649 49.8478 12.5303 51.4736C14.1379 53.0577 15.9576 54.3293 17.9883 55.2881C20.0614 56.2469 22.1349 56.7474 24.208 56.7891C25.7733 56.789 27.3178 56.6216 28.8408 56.2881C30.406 55.9129 31.7178 55.455 32.7754 54.9131C33.8329 54.3713 34.7636 53.8289 35.5674 53.2871C36.4134 52.7036 37.0274 52.2238 37.4082 51.8486L38.043 51.2852L37.916 59.915C37.7891 59.9984 37.5562 60.1243 37.2178 60.291C36.9215 60.4578 36.2863 60.7493 35.3135 61.166C34.3405 61.5828 33.3463 61.9585 32.3311 62.292C31.3157 62.5838 30.0252 62.8336 28.46 63.042C26.8946 63.2921 25.329 63.5221 23.7637 63.4805C21.5636 63.3971 19.342 62.8757 17.0996 62.167C14.8995 61.4583 12.7838 60.395 10.7529 58.9775C8.72216 57.5601 6.9238 55.9131 5.3584 54.0371C3.83539 52.1611 2.60849 49.9303 1.67773 47.3457C0.789354 44.7194 0.365896 41.9256 0.408203 38.9658C0.450612 35.3809 1.17036 32.0249 2.56641 28.8984C3.96261 25.7718 5.78208 23.1863 8.02441 21.1436C10.2667 19.0593 12.8051 17.4329 15.6396 16.2656C18.4744 15.0567 21.3522 14.4313 24.2715 14.3896ZM73.9453 63.4805H65.5127L66.71 41.4678H46.1475C46.1475 48.805 46.1898 56.1432 46.1475 63.4805H38.9131V34.7764H38.9258V15.626H46.1943V34.7764H66.71V15.3906H73.9453V63.4805ZM100.591 40.0293H81.9951L81.8682 55.7881H101.099L101.104 63.4805H75.6543L74.6973 33.4004L100.591 33.3379V40.0293ZM200.434 58.2012L205.26 59.5586L206.646 54.4619L201.82 53.1045L200.434 58.2012ZM159.843 58.0264L164.021 59.1816L165.221 54.8438L161.043 53.6885L159.843 58.0264ZM274.476 21.3721C269.213 21.2468 264.89 22.9175 261.507 26.3828C258.165 29.8483 256.537 34.1279 256.62 39.2217C256.662 44.1901 258.374 48.3652 261.757 51.7471C265.14 55.0872 269.171 56.7992 273.849 56.8828C275.979 56.9246 278.068 56.5284 280.114 55.6934C282.203 54.8583 284.082 53.6886 285.753 52.1855C287.465 50.6408 288.844 48.6786 289.888 46.2988C290.974 43.919 291.538 41.3305 291.58 38.5332C291.58 35.5688 290.912 32.8125 289.575 30.2656C288.28 27.7187 286.317 25.6313 283.686 24.0029C281.054 22.3328 277.984 21.4348 274.476 21.3096V21.3721ZM164.462 49.9463C164.433 49.9625 164.411 49.9896 164.402 50.0215L164.211 50.7041C164.187 50.7891 164.198 50.8801 164.241 50.957C164.285 51.0341 164.357 51.0914 164.442 51.1152L164.478 51.125C164.279 51.721 164.002 52.1156 163.8 52.3447C163.821 52.3917 163.845 52.4373 163.873 52.4805C163.945 52.5906 163.985 52.7423 163.941 52.8984C163.909 53.0145 163.836 53.1084 163.743 53.1699L164.813 53.4697C164.994 53.52 165.182 53.415 165.232 53.2344C165.253 53.1595 165.248 53.0833 165.226 53.0166C165.164 52.8285 165.005 52.2172 165.209 51.3301L165.245 51.3398C165.33 51.3635 165.421 51.3528 165.498 51.3096C165.575 51.2663 165.632 51.1944 165.656 51.1094L165.847 50.4268C165.856 50.395 165.852 50.3609 165.836 50.332C165.82 50.3032 165.792 50.2815 165.761 50.2725L165.721 50.2617C165.678 50.2498 165.632 50.2549 165.594 50.2764C165.555 50.298 165.527 50.3344 165.515 50.377L165.459 50.5771C165.45 50.609 165.428 50.6371 165.399 50.6533C165.371 50.6694 165.336 50.6728 165.305 50.6641C165.273 50.6552 165.246 50.6341 165.229 50.6055C165.213 50.5766 165.209 50.5417 165.218 50.5098L165.274 50.3096C165.286 50.2671 165.28 50.2211 165.259 50.1826C165.237 50.1442 165.201 50.1155 165.158 50.1035C165.116 50.0918 165.071 50.0978 165.032 50.1191C164.994 50.1408 164.965 50.1772 164.953 50.2197L164.896 50.4199C164.888 50.4517 164.867 50.4788 164.838 50.4951C164.809 50.5113 164.774 50.5157 164.742 50.5068C164.71 50.4978 164.683 50.476 164.667 50.4473C164.651 50.4184 164.647 50.3843 164.656 50.3525L164.712 50.1514C164.724 50.1091 164.719 50.0637 164.697 50.0254C164.676 49.9869 164.639 49.9583 164.597 49.9463L164.557 49.9346C164.525 49.9257 164.491 49.9303 164.462 49.9463ZM163.534 50.3408C163.423 50.3096 163.303 50.3124 163.193 50.3486C163.084 50.3849 162.987 50.4536 162.916 50.5449C162.845 50.6364 162.802 50.7468 162.794 50.8623C162.786 50.9779 162.813 51.093 162.871 51.1934L162.782 51.1689C162.718 51.1511 162.65 51.159 162.592 51.1914C162.534 51.2239 162.492 51.2781 162.474 51.3418C162.456 51.4056 162.464 51.4744 162.496 51.5322C162.529 51.59 162.584 51.6325 162.647 51.6504L162.706 51.667C162.565 51.937 162.331 52.0801 162.203 52.1416C162.12 52.1816 162.044 52.2565 162.016 52.3584C162.005 52.3981 162.001 52.4396 162.006 52.4805C162.011 52.5215 162.024 52.5616 162.044 52.5977C162.064 52.6335 162.092 52.6649 162.124 52.6904C162.156 52.7158 162.194 52.7349 162.233 52.7461L163.393 53.0713C163.432 53.0824 163.475 53.086 163.516 53.0811C163.556 53.0761 163.596 53.063 163.632 53.043C163.668 53.0227 163.7 52.9953 163.726 52.9629C163.751 52.9305 163.77 52.8932 163.781 52.8535C163.81 52.7517 163.784 52.6488 163.733 52.5713C163.656 52.4522 163.531 52.2079 163.551 51.9033L163.61 51.9209C163.674 51.9386 163.742 51.9298 163.8 51.8975C163.858 51.865 163.9 51.8108 163.918 51.7471C163.936 51.6834 163.928 51.6153 163.896 51.5576C163.863 51.4999 163.809 51.4564 163.745 51.4385L163.656 51.4141C163.758 51.3583 163.841 51.2737 163.895 51.1709C163.948 51.068 163.969 50.951 163.956 50.8359C163.943 50.721 163.895 50.6125 163.82 50.5244C163.745 50.4364 163.645 50.3722 163.534 50.3408ZM205.411 48.9326C205.382 48.9488 205.361 48.976 205.353 49.0078L205.161 49.6904C205.137 49.7755 205.148 49.8664 205.191 49.9434C205.235 50.0203 205.307 50.0777 205.392 50.1016L205.427 50.1113C205.228 50.707 204.951 51.1009 204.749 51.3301C204.77 51.3772 204.795 51.4235 204.823 51.4668C204.895 51.5769 204.935 51.7288 204.892 51.8848C204.859 52.0007 204.787 52.0947 204.693 52.1562L205.763 52.4561C205.943 52.5064 206.132 52.4014 206.183 52.2207C206.204 52.146 206.198 52.0696 206.176 52.0029C206.114 51.8148 205.955 51.2035 206.159 50.3164L206.194 50.3262C206.279 50.35 206.371 50.3392 206.448 50.2959C206.525 50.2526 206.582 50.1805 206.605 50.0957L206.797 49.4131C206.806 49.3813 206.801 49.3472 206.785 49.3184C206.769 49.2895 206.742 49.2678 206.71 49.2588L206.67 49.248C206.627 49.2362 206.581 49.2412 206.543 49.2627C206.505 49.2844 206.477 49.3209 206.465 49.3633L206.408 49.5635C206.399 49.5951 206.378 49.6224 206.35 49.6387C206.321 49.6549 206.286 49.6592 206.254 49.6504C206.222 49.6414 206.195 49.6196 206.179 49.5908C206.163 49.562 206.159 49.5279 206.168 49.4961L206.224 49.2959C206.236 49.2535 206.23 49.2074 206.209 49.1689C206.187 49.1305 206.151 49.1018 206.108 49.0898C206.066 49.0779 206.02 49.0839 205.981 49.1055C205.943 49.1271 205.914 49.1628 205.902 49.2051L205.847 49.4062C205.838 49.4381 205.816 49.4652 205.787 49.4814C205.758 49.4975 205.724 49.5019 205.692 49.4932C205.661 49.4842 205.633 49.4624 205.617 49.4336C205.601 49.4048 205.597 49.3707 205.605 49.3389L205.662 49.1377C205.674 49.0953 205.668 49.0501 205.646 49.0117C205.625 48.9734 205.589 48.9447 205.547 48.9326L205.506 48.9209C205.474 48.9122 205.44 48.9166 205.411 48.9326ZM204.483 49.3271C204.372 49.2959 204.254 49.2988 204.144 49.335C204.034 49.3712 203.936 49.4389 203.865 49.5303C203.794 49.6218 203.752 49.733 203.744 49.8486C203.736 49.9641 203.763 50.0794 203.82 50.1797L203.731 50.1553C203.668 50.1375 203.6 50.1455 203.542 50.1777C203.484 50.2102 203.442 50.2643 203.424 50.3281C203.406 50.392 203.414 50.4607 203.446 50.5186C203.479 50.5761 203.533 50.6189 203.597 50.6367L203.656 50.6533C203.515 50.9235 203.28 51.0665 203.152 51.1279C203.069 51.1679 202.993 51.2421 202.965 51.3438C202.954 51.3836 202.951 51.4257 202.956 51.4668C202.961 51.5078 202.974 51.548 202.994 51.584C203.014 51.6198 203.042 51.6513 203.074 51.6768C203.107 51.7022 203.144 51.7213 203.184 51.7324L204.343 52.0576C204.382 52.0687 204.424 52.0722 204.465 52.0674C204.506 52.0624 204.546 52.0495 204.582 52.0293C204.618 52.009 204.65 51.9817 204.676 51.9492C204.701 51.9168 204.72 51.8795 204.731 51.8398C204.76 51.7381 204.734 51.6351 204.684 51.5576C204.606 51.4386 204.48 51.1942 204.5 50.8896L204.56 50.9062C204.623 50.9241 204.692 50.9162 204.75 50.8838C204.808 50.8513 204.85 50.7971 204.868 50.7334C204.886 50.6696 204.878 50.6007 204.846 50.543C204.813 50.4854 204.759 50.4428 204.695 50.4248L204.606 50.4004C204.708 50.3447 204.791 50.2599 204.844 50.1572C204.897 50.0543 204.918 49.9374 204.905 49.8223C204.892 49.7072 204.845 49.5989 204.77 49.5107C204.694 49.4226 204.595 49.3585 204.483 49.3271ZM162.643 47.9033L166.821 49.0586L168.021 44.7207L163.843 43.5654L162.643 47.9033ZM203.667 46.3096L208.493 47.667L209.879 42.5713L205.053 41.2139L203.667 46.3096ZM167.9 39.877C167.865 39.8862 167.831 39.9025 167.802 39.9248C167.772 39.9471 167.747 39.9748 167.729 40.0068L166.17 42.6787C166.132 42.7434 166.121 42.8207 166.14 42.8936C166.158 42.9665 166.205 43.029 166.269 43.0674C166.332 43.1055 166.408 43.1171 166.479 43.0986C166.551 43.0799 166.614 43.0325 166.651 42.9678L168.209 40.2969C168.228 40.2648 168.241 40.2293 168.246 40.1924C168.251 40.1557 168.249 40.118 168.24 40.082C168.231 40.0459 168.214 40.0113 168.192 39.9814C168.17 39.9518 168.143 39.9262 168.111 39.9072C168.08 39.8883 168.045 39.8764 168.009 39.8711C167.973 39.8658 167.936 39.8679 167.9 39.877ZM168.345 40.6904C168.308 40.6951 168.272 40.7076 168.239 40.7266C168.207 40.7456 168.179 40.7714 168.156 40.8018C168.134 40.8321 168.117 40.8665 168.108 40.9033C168.099 40.9403 168.098 40.979 168.104 41.0166C168.109 41.0543 168.123 41.0907 168.143 41.123L168.562 41.8613L167.835 42.2871C167.803 42.3057 167.775 42.3308 167.753 42.3604C167.731 42.3899 167.715 42.424 167.705 42.46C167.696 42.4959 167.693 42.5334 167.698 42.5703C167.703 42.6073 167.715 42.6435 167.733 42.6758C167.752 42.7078 167.776 42.7362 167.805 42.7588C167.834 42.7814 167.867 42.798 167.902 42.8076C167.938 42.8172 167.975 42.8203 168.012 42.8154C168.048 42.8105 168.083 42.7978 168.114 42.7793L169.082 42.2109C169.146 42.1733 169.194 42.1116 169.213 42.0391C169.232 41.9664 169.221 41.8884 169.185 41.8232L168.626 40.8389C168.608 40.8053 168.584 40.7759 168.555 40.752C168.526 40.728 168.492 40.7098 168.456 40.6992C168.42 40.6887 168.382 40.6858 168.345 40.6904ZM166.368 40.1602C166.332 40.165 166.296 40.1777 166.265 40.1963L165.297 40.7637C165.233 40.8013 165.186 40.8639 165.167 40.9365C165.148 41.0092 165.158 41.0871 165.195 41.1523L165.754 42.1357C165.791 42.2009 165.852 42.249 165.924 42.2686C165.995 42.2879 166.072 42.2778 166.136 42.2402C166.2 42.2026 166.246 42.14 166.266 42.0674C166.285 41.9949 166.275 41.9176 166.238 41.8525L165.818 41.1143L166.544 40.6875C166.608 40.6499 166.656 40.5881 166.675 40.5156C166.694 40.443 166.683 40.365 166.646 40.2998C166.628 40.2677 166.604 40.2394 166.575 40.2168C166.546 40.1942 166.513 40.1767 166.478 40.167C166.442 40.1574 166.404 40.1553 166.368 40.1602ZM208.698 37.1621C208.663 37.1713 208.629 37.1877 208.6 37.21C208.57 37.2323 208.546 37.2609 208.527 37.293L206.969 39.9639C206.931 40.0287 206.92 40.1067 206.938 40.1797C206.957 40.2525 207.003 40.3152 207.066 40.3535C207.13 40.3918 207.207 40.4024 207.278 40.3838C207.35 40.3651 207.411 40.3185 207.449 40.2539L209.008 37.583C209.026 37.551 209.039 37.5154 209.044 37.4785C209.049 37.4416 209.047 37.4033 209.038 37.3672C209.029 37.3313 209.013 37.2973 208.991 37.2676C208.969 37.2378 208.942 37.2123 208.91 37.1934C208.879 37.1744 208.844 37.1616 208.808 37.1562C208.771 37.151 208.734 37.1529 208.698 37.1621ZM209.144 37.9766C209.107 37.9812 209.07 37.9929 209.038 38.0117C209.006 38.0308 208.977 38.0565 208.954 38.0869C208.932 38.1174 208.915 38.1525 208.906 38.1895C208.897 38.2265 208.895 38.2651 208.901 38.3027C208.907 38.3404 208.921 38.3769 208.94 38.4092L209.359 39.1465L208.634 39.5732C208.602 39.5919 208.574 39.6169 208.552 39.6465C208.529 39.6761 208.512 39.7101 208.503 39.7461C208.494 39.782 208.491 39.8196 208.496 39.8564C208.501 39.8933 208.513 39.9287 208.531 39.9609C208.55 39.9932 208.574 40.0222 208.604 40.0449C208.633 40.0674 208.666 40.0842 208.701 40.0938C208.736 40.1033 208.773 40.1054 208.81 40.1006C208.846 40.0957 208.881 40.084 208.913 40.0654L209.881 39.4971C209.945 39.4594 209.992 39.3969 210.011 39.3242C210.03 39.2516 210.02 39.1736 209.983 39.1084L209.424 38.125C209.406 38.0914 209.383 38.0611 209.354 38.0371C209.325 38.0133 209.291 37.9959 209.255 37.9854C209.219 37.9749 209.181 37.972 209.144 37.9766ZM207.167 37.4463C207.131 37.4511 207.095 37.4629 207.063 37.4814L206.096 38.0498C206.032 38.0875 205.985 38.15 205.966 38.2227C205.947 38.2952 205.956 38.3724 205.993 38.4375L206.552 39.4219C206.589 39.4871 206.65 39.5352 206.722 39.5547C206.793 39.5741 206.87 39.5638 206.934 39.5264C206.998 39.4887 207.045 39.4262 207.064 39.3535C207.084 39.2808 207.073 39.2029 207.036 39.1377L206.617 38.3994L207.343 37.9736C207.407 37.9359 207.454 37.8734 207.473 37.8008C207.492 37.7283 207.482 37.651 207.445 37.5859C207.427 37.5537 207.402 37.5247 207.373 37.502C207.344 37.4794 207.311 37.4628 207.275 37.4531C207.24 37.4435 207.203 37.4415 207.167 37.4463ZM165.441 37.7803L169.62 38.9355L170.819 34.5977L166.642 33.4424L165.441 37.7803ZM206.901 34.4189L211.728 35.7764L213.114 30.6797L208.288 29.3232L206.901 34.4189ZM170.058 29.3994C170.029 29.4157 170.008 29.4428 169.999 29.4746L169.808 30.1562C169.784 30.2414 169.795 30.3331 169.838 30.4102C169.881 30.487 169.953 30.5435 170.038 30.5674L170.073 30.5771C169.875 31.1731 169.598 31.5677 169.396 31.7969C169.417 31.8439 169.442 31.8894 169.47 31.9326C169.541 32.0428 169.582 32.1955 169.538 32.3516C169.505 32.4675 169.433 32.5616 169.34 32.623L170.409 32.9229C170.59 32.9732 170.778 32.8681 170.829 32.6875C170.85 32.6126 170.844 32.5355 170.822 32.4688C170.76 32.2804 170.602 31.6699 170.806 30.7832L170.841 30.793C170.926 30.8168 171.018 30.806 171.095 30.7627C171.172 30.7193 171.228 30.6465 171.252 30.5615L171.443 29.8799C171.452 29.848 171.448 29.813 171.432 29.7842C171.415 29.7556 171.388 29.7345 171.356 29.7256L171.316 29.7139C171.274 29.702 171.228 29.708 171.189 29.7295C171.151 29.7512 171.123 29.7877 171.111 29.8301L171.055 30.0303C171.046 30.062 171.025 30.0892 170.996 30.1055C170.967 30.1217 170.932 30.126 170.9 30.1172C170.869 30.1082 170.841 30.0864 170.825 30.0576C170.809 30.0288 170.806 29.9947 170.814 29.9629L170.87 29.7627C170.882 29.7203 170.877 29.6742 170.855 29.6357C170.834 29.5973 170.797 29.5686 170.755 29.5566C170.712 29.5447 170.666 29.5507 170.628 29.5723C170.59 29.5939 170.561 29.6295 170.549 29.6719L170.493 29.873C170.484 29.9048 170.462 29.932 170.434 29.9482C170.405 29.9643 170.371 29.9678 170.339 29.959C170.307 29.95 170.28 29.9292 170.264 29.9004C170.247 29.8716 170.243 29.8375 170.252 29.8057L170.309 29.6045C170.32 29.562 170.315 29.516 170.293 29.4775C170.271 29.4394 170.235 29.4114 170.193 29.3994L170.152 29.3877C170.121 29.3789 170.086 29.3834 170.058 29.3994ZM169.13 29.7939C169.018 29.7627 168.9 29.7646 168.79 29.8008C168.68 29.837 168.583 29.9056 168.512 29.9971C168.441 30.0884 168.399 30.199 168.391 30.3145C168.383 30.4301 168.409 30.546 168.467 30.6465L168.378 30.6211C168.314 30.6034 168.246 30.6123 168.188 30.6445C168.131 30.677 168.088 30.7311 168.07 30.7949C168.052 30.8587 168.06 30.9266 168.093 30.9844C168.125 31.0421 168.179 31.0856 168.243 31.1035L168.303 31.1201C168.161 31.3902 167.927 31.5333 167.799 31.5947C167.716 31.6347 167.64 31.7088 167.611 31.8105C167.6 31.8504 167.598 31.8925 167.603 31.9336C167.607 31.9745 167.62 32.0139 167.641 32.0498C167.661 32.0858 167.688 32.118 167.721 32.1436C167.753 32.169 167.79 32.1881 167.83 32.1992L168.989 32.5244C169.029 32.5354 169.071 32.539 169.111 32.5342C169.152 32.5292 169.193 32.5163 169.229 32.4961C169.264 32.4758 169.297 32.4485 169.322 32.416C169.348 32.3835 169.367 32.3454 169.378 32.3057C169.406 32.2041 169.38 32.1017 169.33 32.0244C169.253 31.9054 169.127 31.661 169.146 31.3564L169.206 31.373C169.27 31.3909 169.339 31.383 169.396 31.3506C169.454 31.3181 169.497 31.2639 169.515 31.2002C169.533 31.1364 169.525 31.0675 169.492 31.0098C169.46 30.9521 169.405 30.9096 169.342 30.8916L169.253 30.8672C169.354 30.8115 169.437 30.7259 169.49 30.623C169.543 30.5203 169.565 30.404 169.552 30.2891C169.539 30.174 169.491 30.0648 169.416 29.9766C169.341 29.8886 169.241 29.8253 169.13 29.7939ZM168.286 27.4971L172.465 28.6523L173.62 24.4746L169.442 23.3193L168.286 27.4971ZM212.117 24.8457C212.088 24.8619 212.067 24.8891 212.058 24.9209L211.866 25.6035C211.842 25.6885 211.853 25.7795 211.896 25.8564C211.94 25.9335 212.013 25.9908 212.098 26.0146L212.133 26.0244C211.934 26.6204 211.657 27.015 211.455 27.2441C211.476 27.2911 211.5 27.3367 211.528 27.3799C211.6 27.49 211.64 27.6418 211.597 27.7979C211.564 27.9139 211.492 28.0078 211.398 28.0693L212.469 28.3691C212.65 28.4195 212.837 28.3145 212.888 28.1338C212.909 28.0589 212.903 27.9828 212.881 27.916C212.819 27.7279 212.66 27.1167 212.864 26.2295L212.9 26.2393C212.985 26.2629 213.076 26.2522 213.153 26.209C213.23 26.1656 213.288 26.0938 213.312 26.0088L213.502 25.3262C213.511 25.2944 213.507 25.2602 213.491 25.2314C213.475 25.2026 213.448 25.1809 213.416 25.1719L213.376 25.1611C213.334 25.1492 213.287 25.1543 213.249 25.1758C213.211 25.1974 213.182 25.2339 213.17 25.2764L213.114 25.4775C213.105 25.5093 213.083 25.5365 213.055 25.5527C213.026 25.5688 212.992 25.5723 212.96 25.5635C212.928 25.5546 212.901 25.5336 212.885 25.5049C212.869 25.476 212.864 25.4411 212.873 25.4092L212.93 25.209C212.942 25.1665 212.936 25.1205 212.914 25.082C212.892 25.0437 212.856 25.0159 212.813 25.0039C212.771 24.9921 212.726 24.9972 212.688 25.0186C212.649 25.0402 212.62 25.0766 212.608 25.1191L212.552 25.3193C212.543 25.3511 212.522 25.3783 212.493 25.3945C212.464 25.4107 212.429 25.4151 212.397 25.4062C212.366 25.3972 212.338 25.3754 212.322 25.3467C212.306 25.3179 212.303 25.2837 212.312 25.252L212.367 25.0518C212.379 25.0093 212.374 24.9633 212.353 24.9248C212.331 24.8863 212.294 24.8577 212.252 24.8457L212.212 24.835C212.18 24.8261 212.146 24.8297 212.117 24.8457ZM211.189 25.2402C211.078 25.209 210.959 25.2118 210.849 25.248C210.739 25.2843 210.642 25.353 210.571 25.4443C210.5 25.5358 210.457 25.6462 210.449 25.7617C210.441 25.8773 210.469 25.9924 210.526 26.0928L210.438 26.0684C210.374 26.0505 210.305 26.0584 210.247 26.0908C210.189 26.1233 210.147 26.1775 210.129 26.2412C210.111 26.305 210.119 26.3738 210.151 26.4316C210.184 26.4894 210.239 26.5319 210.303 26.5498L210.361 26.5664C210.22 26.8365 209.987 26.9795 209.858 27.041C209.775 27.081 209.7 27.1559 209.671 27.2578C209.66 27.2975 209.656 27.339 209.661 27.3799C209.666 27.4209 209.679 27.461 209.699 27.4971C209.719 27.5331 209.747 27.5653 209.779 27.5908C209.812 27.6162 209.849 27.6353 209.889 27.6465L211.048 27.9707C211.088 27.9818 211.13 27.9854 211.171 27.9805C211.212 27.9755 211.251 27.9625 211.287 27.9424C211.323 27.9221 211.355 27.8948 211.381 27.8623C211.406 27.8299 211.425 27.7926 211.437 27.7529C211.465 27.6511 211.439 27.5482 211.389 27.4707C211.311 27.3517 211.187 27.108 211.206 26.8037L211.266 26.8203C211.329 26.838 211.397 26.8292 211.455 26.7969C211.513 26.7644 211.555 26.7103 211.573 26.6465C211.591 26.5828 211.583 26.5147 211.551 26.457C211.518 26.3993 211.464 26.3568 211.4 26.3389L211.312 26.3135C211.413 26.2577 211.497 26.1732 211.55 26.0703C211.603 25.9674 211.624 25.8504 211.611 25.7354C211.598 25.6204 211.551 25.5119 211.476 25.4238C211.401 25.3358 211.301 25.2716 211.189 25.2402ZM210.188 22.3389L215.014 23.6963L216.349 18.7891L211.522 17.4316L210.188 22.3389ZM362.815 23.126L336.752 23.251V14.8594H362.815V23.126ZM173.402 19.5381C173.367 19.5473 173.333 19.5637 173.304 19.5859C173.275 19.6082 173.25 19.6361 173.231 19.668L171.673 22.3398C171.635 22.4046 171.624 22.4818 171.643 22.5547C171.661 22.6276 171.707 22.6901 171.771 22.7285C171.834 22.7668 171.911 22.7784 171.982 22.7598C172.054 22.741 172.116 22.6936 172.153 22.6289L173.712 19.958C173.731 19.926 173.743 19.8903 173.748 19.8535C173.753 19.8167 173.751 19.7792 173.742 19.7432C173.733 19.7071 173.717 19.6724 173.695 19.6426C173.673 19.6128 173.646 19.5873 173.614 19.5684C173.583 19.5495 173.548 19.5376 173.512 19.5322C173.475 19.5269 173.438 19.5289 173.402 19.5381ZM173.848 20.3516C173.811 20.3562 173.775 20.3687 173.742 20.3877C173.71 20.4067 173.681 20.4325 173.658 20.4629C173.636 20.4932 173.619 20.5277 173.61 20.5645C173.601 20.6014 173.6 20.6401 173.605 20.6777C173.611 20.7154 173.625 20.7518 173.645 20.7842L174.063 21.5225L173.338 21.9482C173.306 21.9668 173.278 21.992 173.256 22.0215C173.234 22.0511 173.217 22.0851 173.207 22.1211C173.198 22.157 173.195 22.1946 173.2 22.2314C173.205 22.2684 173.217 22.3046 173.235 22.3369C173.254 22.3691 173.279 22.3973 173.308 22.4199C173.337 22.4425 173.37 22.4591 173.405 22.4688C173.441 22.4783 173.478 22.4814 173.514 22.4766C173.55 22.4717 173.585 22.459 173.617 22.4404L174.585 21.8721C174.649 21.8345 174.696 21.7726 174.715 21.7002C174.734 21.6276 174.724 21.5495 174.688 21.4844L174.128 20.5C174.11 20.4666 174.086 20.437 174.058 20.4131C174.029 20.3892 173.995 20.3709 173.959 20.3604C173.923 20.3499 173.885 20.347 173.848 20.3516ZM101.099 21.957L74.6973 22.082V15.3906L101.099 15.3281V21.957ZM171.871 19.8213C171.835 19.8262 171.799 19.8388 171.768 19.8574L170.8 20.4248C170.736 20.4625 170.689 20.525 170.67 20.5977C170.651 20.6704 170.66 20.7483 170.697 20.8135L171.256 21.7969C171.293 21.862 171.354 21.9102 171.426 21.9297C171.497 21.9491 171.574 21.9389 171.638 21.9014C171.702 21.8637 171.749 21.8012 171.769 21.7285C171.788 21.656 171.777 21.5787 171.74 21.5137L171.321 20.7754L172.047 20.3486C172.111 20.311 172.158 20.2492 172.177 20.1768C172.196 20.1042 172.186 20.0261 172.149 19.9609C172.131 19.9287 172.106 19.9006 172.077 19.8779C172.048 19.8553 172.015 19.8378 171.979 19.8281C171.944 19.8186 171.907 19.8165 171.871 19.8213ZM215.335 12.9902C215.299 12.9994 215.266 13.0158 215.236 13.0381C215.207 13.0603 215.183 13.0883 215.164 13.1201L213.605 15.792C213.568 15.8567 213.557 15.9339 213.575 16.0068C213.594 16.0798 213.639 16.1432 213.703 16.1816C213.767 16.2199 213.843 16.2305 213.915 16.2119C213.987 16.1932 214.048 16.1465 214.086 16.082L215.645 13.4111C215.663 13.3791 215.675 13.3426 215.681 13.3057C215.686 13.2689 215.684 13.2313 215.675 13.1953C215.666 13.1594 215.65 13.1254 215.628 13.0957C215.606 13.066 215.578 13.0405 215.547 13.0215C215.516 13.0026 215.48 12.9898 215.444 12.9844C215.408 12.9791 215.37 12.9811 215.335 12.9902ZM215.78 13.8037C215.743 13.8083 215.707 13.8209 215.675 13.8398C215.642 13.8589 215.613 13.8846 215.591 13.915C215.568 13.9455 215.552 13.9806 215.543 14.0176C215.534 14.0545 215.532 14.0933 215.538 14.1309C215.544 14.1683 215.557 14.2042 215.577 14.2363L215.996 14.9746L215.271 15.4014C215.239 15.4199 215.211 15.4443 215.188 15.4736C215.166 15.5032 215.149 15.5373 215.14 15.5732C215.13 15.6093 215.128 15.6476 215.133 15.6846C215.138 15.7214 215.15 15.7569 215.168 15.7891C215.186 15.8213 215.211 15.8494 215.24 15.8721C215.269 15.8947 215.303 15.9123 215.338 15.9219C215.373 15.9314 215.41 15.9335 215.446 15.9287C215.483 15.9238 215.518 15.9112 215.55 15.8926L216.518 15.3242C216.581 15.2866 216.628 15.2249 216.647 15.1523C216.667 15.0797 216.657 15.0017 216.62 14.9365L216.061 13.9521C216.043 13.9188 216.019 13.8891 215.99 13.8652C215.961 13.8413 215.927 13.823 215.892 13.8125C215.856 13.802 215.817 13.7992 215.78 13.8037ZM213.804 13.2734C213.767 13.2783 213.732 13.291 213.7 13.3096L212.732 13.8779C212.668 13.9155 212.622 13.9773 212.603 14.0498C212.583 14.1225 212.593 14.2004 212.63 14.2656L213.188 15.25C213.225 15.3151 213.287 15.3623 213.358 15.3818C213.43 15.4012 213.506 15.3911 213.57 15.3535C213.634 15.3159 213.682 15.2543 213.701 15.1816C213.72 15.1089 213.71 15.031 213.673 14.9658L213.254 14.2275L213.979 13.8008C214.043 13.7631 214.09 13.7014 214.109 13.6289C214.128 13.5563 214.119 13.4783 214.082 13.4131C214.064 13.3809 214.039 13.3528 214.01 13.3301C213.981 13.3075 213.947 13.2909 213.912 13.2812C213.877 13.2717 213.84 13.2687 213.804 13.2734Z" fill="#2963FF"/>
</svg>
