<svg width="192" height="84" viewBox="0 0 192 84" fill="none" xmlns="http://www.w3.org/2000/svg">
<path d="M143.16 21.9209C150.589 25.264 158.358 27.8985 166.592 27.8941C166.784 27.8942 166.976 27.8943 167.174 27.8944C168.669 27.8859 170.128 27.7813 171.606 27.5596C170.899 28.3513 170.042 28.898 169.161 29.4806C168.917 29.6422 168.917 29.6422 168.669 29.807C167.255 30.7357 165.809 31.5948 164.326 32.4079C163.995 32.5894 163.667 32.7743 163.339 32.9599C155.421 37.3716 146.325 39.1932 137.475 36.7017C135.308 36.0536 133.252 35.2143 131.267 34.1349C131.089 34.0411 130.911 33.9472 130.727 33.8506C128.82 32.8103 127.104 31.5032 125.512 30.0271C124.858 29.4291 124.165 28.8782 123.474 28.3241C123.395 28.2607 123.316 28.1973 123.235 28.1319C120.68 26.0769 118.007 24.2428 115.223 22.5134C115.112 22.4439 115.001 22.3745 114.888 22.3029C111.235 20.0105 107.595 18.9294 103.247 18.9486C103.091 18.9492 103.091 18.9492 102.932 18.9497C101.379 18.9585 99.9152 19.015 98.4146 19.4551C98.3014 19.488 98.1881 19.5209 98.0714 19.5548C95.3598 20.3646 92.7942 21.6667 90.469 23.278C90.2268 23.4438 90.2268 23.4438 89.9796 23.6131C88.8318 24.4108 87.7446 25.2658 86.6859 26.1792C86.5881 26.2616 86.4902 26.344 86.3894 26.4288C86.303 26.5032 86.2166 26.5775 86.1276 26.6541C86.0475 26.7006 85.9675 26.7471 85.885 26.795C85.2275 26.5757 84.9725 26.1276 84.5576 25.5908C84.4795 25.4932 84.4014 25.3956 84.3209 25.2951C84.2472 25.2007 84.1734 25.1063 84.0974 25.009C84.0299 24.9227 83.9624 24.8364 83.8929 24.7475C83.7459 24.5013 83.7458 24.5013 83.7458 24.0425C84.0809 23.7901 84.0809 23.7901 84.5516 23.5163C84.7236 23.4152 84.8956 23.3142 85.0727 23.2101C85.2607 23.102 85.4487 22.994 85.6367 22.8861C85.8283 22.7748 86.0198 22.6633 86.2112 22.5517C86.7633 22.2308 87.3173 21.9132 87.8714 21.5959C88.0039 21.5194 88.1363 21.4428 88.2728 21.364C103.664 12.4796 118.713 11.987 143.16 21.9209Z" fill="#161616"/>
<path d="M50.0833 32.291C52.9343 34.8394 54.7299 38.2359 55.0195 42.0864C55.0511 42.7587 55.0616 43.43 55.0672 44.103C55.0717 44.2777 55.0761 44.4525 55.0807 44.6325C55.0901 45.9193 54.85 46.9966 54.4083 48.203C54.2426 48.2022 54.0769 48.2014 53.9063 48.2006C53.288 48.1978 52.6698 48.196 52.0515 48.1946C51.7846 48.1938 51.5177 48.1928 51.2508 48.1915C50.8658 48.1896 50.4809 48.1887 50.0958 48.1881C49.9777 48.1873 49.8596 48.1865 49.7378 48.1857C49.0375 48.1856 48.3761 48.2402 47.6851 48.3559C47.7182 48.1959 47.7182 48.1959 47.7519 48.0328C48.5676 43.3902 48.0813 38.1525 45.4175 34.1737C44.0687 32.3601 42.0977 31.2099 39.8923 30.7708C37.5394 30.4444 35.1168 30.6275 33.0706 31.9493C32.445 32.4259 31.8696 32.9453 31.3355 33.5232C31.1937 33.6651 31.0518 33.8071 30.9057 33.9533C28.1723 37.1906 27.8304 42 28.1614 46.0254C28.5457 49.5887 29.8112 52.9638 32.5668 55.3679C34.7193 56.9384 37.1391 57.2851 39.7395 57.072C41.7934 56.7002 43.8793 55.5983 45.1346 53.8954C45.5518 53.2873 45.9359 52.6613 46.3099 52.0259C46.1082 52.0259 45.9065 52.0259 45.6987 52.0259C45.6987 51.3699 45.6987 50.7138 45.6987 50.038C49.4824 48.0424 54.5013 49.4532 58.3811 50.6496C59.8209 51.1172 61.2505 51.6175 62.6756 52.1281C65.0108 52.9579 67.3666 53.682 69.8697 53.6315C70.101 53.6285 70.101 53.6285 70.3369 53.6255C72.8545 53.5578 75.0095 52.8901 76.7935 51.0319C76.9117 50.8979 77.0298 50.7638 77.1516 50.6257C77.4811 50.3438 77.4811 50.3438 77.801 50.3486C78.1183 50.5099 78.318 50.6877 78.5507 50.9555C76.8515 54.1293 74.7924 56.3966 71.31 57.5338C67.7577 58.4984 64.6389 57.533 61.409 56.0906C59.4037 55.1955 57.3668 54.4213 55.2869 53.7175C55.0249 53.628 55.0249 53.628 54.7576 53.5367C53.4634 53.0904 53.4634 53.0904 52.1163 52.9433C51.7185 53.2139 51.7185 53.2139 51.4287 53.6315C51.3127 53.7732 51.1966 53.9149 51.0771 54.0609C50.9662 54.1967 50.8553 54.3326 50.7411 54.4725C48.807 56.465 46.164 57.6723 43.5308 58.4196C43.4258 58.4494 43.3208 58.4792 43.2125 58.5099C41.3505 59.0048 39.5059 59.1219 37.5907 59.1173C37.4734 59.1173 37.356 59.1173 37.2351 59.1173C35.3619 59.1131 33.6021 58.9699 31.7939 58.4483C31.5442 58.382 31.5442 58.382 31.2895 58.3145C29.4268 57.7614 27.5973 56.8305 26.1403 55.5429C26.017 55.4412 25.8937 55.3395 25.7666 55.2347C22.9049 52.8 21.4041 49.3112 21.0979 45.6035C20.8278 41.3244 21.939 37.2792 24.7826 34.0051C30.7958 27.3661 43.2444 26.5352 50.0833 32.291Z" fill="#161616"/>
<path d="M131.572 41.1689C131.648 42.3043 131.648 42.3043 131.725 43.4626C132.005 43.2797 132.286 43.0968 132.575 42.9083C134.799 41.5058 137.214 40.803 139.842 41.2501C141.328 41.667 142.416 42.5874 143.185 43.9214C143.782 45.3737 143.819 46.768 143.828 48.32C143.833 48.7061 143.837 49.0922 143.841 49.4782C143.848 50.0829 143.853 50.6874 143.857 51.2921C143.862 51.8784 143.869 52.4646 143.876 53.0508C143.877 53.3187 143.877 53.3187 143.878 53.5921C143.899 55.2302 143.899 55.2302 144.407 56.7662C144.773 56.9683 144.773 56.9683 145.171 57.072C145.317 57.115 145.463 57.1579 145.614 57.2022C145.761 57.2412 145.908 57.2803 146.059 57.3205C146.208 57.3603 146.358 57.4001 146.511 57.4411C146.624 57.4707 146.736 57.5003 146.852 57.5307C146.852 57.8335 146.852 58.1363 146.852 58.4482C143.272 58.4482 139.692 58.4482 136.003 58.4482C136.003 58.1454 136.003 57.8427 136.003 57.5307C136.106 57.4954 136.21 57.4602 136.316 57.4238C137.422 57.0357 137.422 57.0357 138.142 56.1545C138.418 55.1382 138.494 54.1452 138.489 53.0968C138.489 52.957 138.489 52.8172 138.49 52.6732C138.49 52.3798 138.489 52.0865 138.488 51.7931C138.486 51.3489 138.488 50.9048 138.49 50.4605C138.571 47.6637 138.571 47.6637 137.531 45.1447C136.771 44.4532 135.95 44.1993 134.934 44.2272C133.83 44.3205 132.67 44.8106 131.878 45.6034C131.861 45.9018 131.855 46.2009 131.853 46.4997C131.852 46.6917 131.85 46.8837 131.849 47.0815C131.848 47.293 131.847 47.5046 131.847 47.7161C131.846 47.9324 131.845 48.1487 131.844 48.3649C131.842 48.8196 131.841 49.2743 131.841 49.729C131.84 50.3091 131.836 50.8892 131.832 51.4694C131.829 51.9169 131.828 52.3643 131.828 52.8118C131.828 53.0255 131.827 53.2392 131.824 53.4528C131.769 55.2965 131.769 55.2965 132.584 56.8904C133.142 57.1693 133.727 57.3511 134.322 57.5307C134.322 57.8335 134.322 58.1363 134.322 58.4482C130.742 58.4482 127.162 58.4482 123.474 58.4482C123.474 58.1454 123.474 57.8427 123.474 57.5307C123.575 57.5029 123.677 57.4751 123.781 57.4465C124.842 57.17 124.842 57.17 125.766 56.6132C126.143 55.8665 126.282 55.3179 126.283 54.4698C126.285 54.3177 126.285 54.3177 126.286 54.1626C126.288 53.831 126.286 53.4995 126.285 53.1679C126.285 52.9354 126.286 52.703 126.286 52.4705C126.287 51.9846 126.286 51.4988 126.284 51.013C126.281 50.3924 126.283 49.7719 126.285 49.1513C126.287 48.6717 126.287 48.1921 126.285 47.7124C126.285 47.4837 126.285 47.255 126.287 47.0262C126.288 46.7057 126.286 46.3853 126.283 46.0648C126.283 45.883 126.283 45.7012 126.282 45.5138C126.203 44.8071 125.983 44.2271 125.567 43.6412C125.188 43.3804 124.808 43.3055 124.362 43.2046C124.196 43.1661 124.03 43.1277 123.859 43.0881C123.732 43.0603 123.605 43.0325 123.474 43.0039C123.474 42.6506 123.474 42.2974 123.474 41.9335C123.59 41.9266 123.707 41.9197 123.827 41.9127C126.233 41.7678 128.61 41.5769 130.993 41.2062C131.266 41.1689 131.266 41.1689 131.572 41.1689Z" fill="#161616"/>
<path d="M118.389 42.8462C119.906 44.11 120.802 45.8147 121.182 47.7442C121.258 48.7282 121.258 48.7282 121.335 49.7321C117.2 49.7321 113.065 49.7321 108.805 49.7321C109.598 53.2241 109.598 53.2241 112.023 55.6002C112.986 56.159 113.845 56.3639 114.955 56.3552C115.128 56.3539 115.128 56.3539 115.304 56.3526C117.08 56.314 118.628 55.681 119.902 54.4151C120.022 54.2827 120.142 54.1502 120.265 54.0137C120.78 54.2268 121.027 54.4692 121.335 54.9312C120.648 56.5546 118.632 57.611 117.065 58.2669C115.97 58.69 114.873 59.0295 113.695 59.0599C113.55 59.0676 113.405 59.0753 113.256 59.0832C110.654 59.1629 108.146 58.5297 106.112 56.8426C104.335 55.1109 103.43 52.9022 103.305 50.4423C103.302 47.8614 104.126 45.5795 105.938 43.7249C109.27 40.6492 114.659 40.1472 118.389 42.8462ZM110.119 44.0522C109.226 45.2497 108.805 46.7205 108.805 48.203C110.471 48.2422 112.119 48.1818 113.781 48.0596C113.965 48.0463 114.15 48.0331 114.34 48.0194C115.144 48.0313 115.144 48.0313 115.834 47.7442C115.982 46.404 115.746 45.2947 114.982 44.1818C114.311 43.3535 113.711 42.9311 112.635 42.7936C111.591 42.9215 110.837 43.2733 110.119 44.0522Z" fill="#161616"/>
<path d="M97.7612 42.8462C99.278 44.11 100.175 45.8147 100.554 47.7442C100.63 48.7282 100.63 48.7282 100.707 49.7321C96.572 49.7321 92.4373 49.7321 88.1772 49.7321C88.9702 53.2241 88.9702 53.2241 91.3956 55.6002C92.3579 56.159 93.2173 56.3639 94.3274 56.3552C94.5 56.3539 94.5 56.3539 94.676 56.3526C96.4523 56.314 98.0004 55.681 99.2743 54.4151C99.3941 54.2827 99.5138 54.1502 99.6372 54.0137C100.152 54.2268 100.399 54.4692 100.707 54.9312C100.02 56.5546 98.0038 57.611 96.4366 58.2669C95.3422 58.69 94.2454 59.0295 93.0668 59.0599C92.922 59.0676 92.7773 59.0753 92.6281 59.0832C90.0256 59.1629 87.518 58.5297 85.4841 56.8426C83.7069 55.1109 82.8022 52.9022 82.677 50.4423C82.6742 47.8614 83.4977 45.5795 85.3098 43.7249C88.6417 40.6492 94.0316 40.1472 97.7612 42.8462ZM89.4915 44.0522C88.5979 45.2497 88.1772 46.7205 88.1772 48.203C89.8431 48.2422 91.4906 48.1818 93.1528 48.0596C93.3373 48.0463 93.5218 48.0331 93.7119 48.0194C94.516 48.0313 94.516 48.0313 95.206 47.7442C95.3543 46.404 95.1177 45.2947 94.3537 44.1818C93.683 43.3535 93.0826 42.9311 92.0068 42.7936C90.9633 42.9215 90.2092 43.2733 89.4915 44.0522Z" fill="#161616"/>
<path d="M159.688 41.5512C159.956 41.5882 160.225 41.625 160.493 41.6617C161.142 41.7506 161.79 41.8415 162.438 41.9335C162.515 42.5992 162.591 43.2651 162.667 43.9309C162.689 44.1189 162.711 44.3068 162.733 44.5005C162.754 44.6833 162.775 44.8661 162.796 45.0545C162.825 45.3056 162.825 45.3056 162.854 45.5617C162.899 46.0876 162.903 46.6051 162.896 47.1326C162.428 47.1973 162.126 47.2377 161.674 47.1326C161.292 46.7786 161.039 46.3452 160.757 45.9093C159.696 44.4839 158.248 43.4663 156.479 43.1568C155.562 43.0603 154.815 43.0685 154.034 43.6156C153.632 44.1274 153.683 44.6679 153.728 45.2976C154.043 46.1452 154.794 46.4363 155.562 46.8268C156.365 47.1804 157.18 47.5024 157.997 47.8207C162.744 49.6727 162.744 49.6727 163.813 51.72C164.282 53.0243 164.23 54.5261 163.718 55.8105C162.855 57.4949 161.502 58.2763 159.765 58.8885C156.512 59.6951 152.595 58.7282 149.45 57.8366C149.138 57.5247 149.174 56.927 149.115 56.498C149.098 56.3794 149.082 56.2608 149.064 56.1387C149.011 55.7586 148.958 55.3783 148.906 54.9981C148.87 54.741 148.833 54.4838 148.797 54.2267C148.709 53.5951 148.621 52.9634 148.533 52.3317C148.998 52.2199 149.43 52.1482 149.908 52.1788C150.267 52.4972 150.447 52.7038 150.692 53.0962C150.821 53.2822 150.951 53.4677 151.082 53.6529C151.143 53.7425 151.204 53.8321 151.267 53.9244C152.232 55.3061 154.194 56.7431 155.868 57.072C157.085 57.2531 158.127 57.3697 159.229 56.7662C159.582 56.4791 159.662 56.2888 159.746 55.8469C159.801 55.1525 159.736 54.7904 159.3 54.2371C158.788 53.6757 158.249 53.3819 157.558 53.0867C157.444 53.0355 157.33 52.9844 157.213 52.9317C156.489 52.6097 155.755 52.3151 155.018 52.0258C150.464 50.2302 150.464 50.2302 149.55 48.1815C149.065 46.805 149.16 45.3271 149.716 43.9883C150.374 42.7119 151.425 41.9758 152.764 41.513C155.017 40.804 157.4 41.2257 159.688 41.5512Z" fill="#161616"/>
<path d="M77.7868 41.3218C77.8256 42.5216 77.8523 43.7213 77.8707 44.9216C77.8776 45.3299 77.8888 45.7374 77.9021 46.1456C77.9207 46.733 77.9293 47.3197 77.936 47.9073C77.9439 48.089 77.9518 48.2708 77.9599 48.4581C77.9608 49.701 77.9608 49.701 77.4547 50.2362C77.0665 50.5128 76.6846 50.7421 76.2588 50.9554C76.0878 51.0415 75.9169 51.1277 75.7407 51.2164C75.5245 51.3001 75.5245 51.3001 75.3038 51.3855C75.1581 51.4432 75.0123 51.501 74.8621 51.5605C74.7179 51.6131 74.5738 51.6657 74.4252 51.72C74.2747 51.7773 74.1242 51.8347 73.9692 51.8938C73.486 52.0322 73.0912 52.0354 72.5916 52.0258C72.5886 51.8493 72.5856 51.6728 72.5824 51.491C72.5707 50.8289 72.5572 50.1669 72.5431 49.5049C72.5373 49.2197 72.532 48.9346 72.5271 48.6494C72.6438 45.894 72.6438 45.894 71.6748 43.4626C70.9096 43.0422 70.2443 42.9401 69.3828 42.8509C69.23 42.698 69.23 42.698 69.2205 42.2297C69.2236 42.0815 69.2268 41.9333 69.23 41.7805C69.4064 41.7721 69.5827 41.7636 69.7644 41.7549C70.426 41.723 71.0875 41.6907 71.749 41.6583C72.034 41.6444 72.3189 41.6306 72.6039 41.6169C74.6506 41.5234 74.6506 41.5234 76.6917 41.3495C77.058 41.3188 77.4193 41.32 77.7868 41.3218Z" fill="#161616"/>
<path d="M65.5626 41.3218C65.5626 44.8037 65.5626 48.2855 65.5626 51.8729C60.5202 50.8025 60.5202 50.8025 60.3674 50.6496C60.3486 50.2324 60.3389 49.8186 60.3352 49.4012C60.3309 49.1418 60.3265 48.8823 60.322 48.6229C60.3157 48.2132 60.3101 47.8035 60.3061 47.3938C60.3018 46.9989 60.2948 46.604 60.2874 46.2091C60.2869 46.088 60.2864 45.9669 60.2859 45.8422C60.2651 44.8928 60.0886 44.1531 59.4506 43.4148C58.8684 43.0871 58.3238 43.0053 57.6671 42.9113C57.3114 42.851 57.3114 42.851 57.1586 42.6981C57.1523 42.3923 57.1521 42.0863 57.1586 41.7806C57.3303 41.7721 57.502 41.7636 57.6789 41.7549C58.3234 41.7231 58.9679 41.6908 59.6123 41.6583C59.8898 41.6444 60.1674 41.6306 60.4449 41.6169C62.4576 41.5215 62.4576 41.5215 64.4647 41.3496C64.8296 41.3193 65.1965 41.3218 65.5626 41.3218Z" fill="#161616"/>
<path d="M121.727 31.2474C122.018 31.4321 122.291 31.6219 122.557 31.8412C122.608 31.5889 122.658 31.3366 122.71 31.0766C123.012 31.0766 123.315 31.0766 123.627 31.0766C123.638 31.9499 123.646 32.8231 123.652 33.6964C123.654 33.9932 123.657 34.29 123.661 34.5867C123.667 35.0145 123.669 35.4423 123.671 35.8701C123.674 36.0017 123.676 36.1333 123.679 36.2689C123.679 37.2167 123.549 37.9728 122.911 38.7163C122.823 38.7877 122.734 38.859 122.643 38.9326C122.511 39.0431 122.511 39.0431 122.376 39.156C121.551 39.6854 120.438 39.5664 119.501 39.4869C118.716 39.2806 118.126 39.1042 117.667 38.4165C117.869 38.2146 118.071 38.0128 118.279 37.8048C118.439 37.9057 118.6 38.0067 118.766 38.1107C119.626 38.5427 120.546 38.5504 121.487 38.4165C122.019 38.1618 122.205 38.0599 122.452 37.5181C122.548 37.0834 122.583 36.7183 122.557 36.2757C122.393 36.3735 122.229 36.4712 122.06 36.572C121.22 37.0483 120.476 37.1721 119.503 36.9805C118.593 36.705 118.051 36.1292 117.515 35.3582C117.214 34.454 117.209 33.4266 117.601 32.5484C118.41 31.1397 120.242 30.6008 121.727 31.2474ZM118.689 32.6822C118.258 33.3216 118.214 33.8336 118.279 34.5936C118.651 35.3239 119.074 35.756 119.807 36.1228C120.621 36.2678 121.251 36.1224 121.946 35.664C122.531 35.126 122.672 34.6308 122.725 33.8613C122.693 33.1398 122.384 32.7286 121.869 32.2521C120.77 31.5096 119.57 31.7289 118.689 32.6822Z" fill="#161616"/>
<path d="M83.2876 31.0766C83.5901 31.0766 83.8927 31.0766 84.2044 31.0766C84.2548 31.2784 84.3052 31.4802 84.3572 31.6882C84.499 31.5873 84.6408 31.4864 84.7869 31.3824C85.5328 30.9585 86.2718 30.9513 87.1076 31.0766C87.6534 31.2849 88.0682 31.5791 88.4828 31.994C88.5963 31.8994 88.7097 31.8048 88.8266 31.7073C89.7156 31.0199 90.4324 30.9737 91.5388 31.0766C92.2659 31.3279 92.6383 31.6646 93.0668 32.2999C93.2409 32.8225 93.2369 33.2227 93.2345 33.7735C93.2338 34.0713 93.2338 34.0713 93.233 34.3753C93.2318 34.585 93.2305 34.7948 93.2291 35.0045C93.2284 35.2161 93.2277 35.4276 93.2271 35.6392C93.2253 36.1572 93.2227 36.6751 93.2196 37.1931C92.9171 37.1931 92.6145 37.1931 92.3028 37.1931C92.3006 37.0721 92.2983 36.951 92.296 36.8263C92.2846 36.2763 92.2699 35.7265 92.255 35.1766C92.2499 34.8908 92.2499 34.8908 92.2446 34.5993C92.2392 34.4154 92.2338 34.2316 92.2282 34.0423C92.2242 33.8733 92.2202 33.7043 92.2161 33.5302C92.1421 33.0086 92.0097 32.7171 91.6916 32.2999C91.0716 32.0254 90.7178 31.9765 90.049 32.0992C89.6015 32.28 89.3709 32.3738 89.094 32.7586C88.9323 33.2441 88.9103 33.6215 88.8929 34.1319C88.8832 34.3987 88.8832 34.3987 88.8735 34.6709C88.8674 34.8567 88.8614 35.0425 88.8552 35.2339C88.8454 35.5152 88.8454 35.5152 88.8353 35.8023C88.819 36.2659 88.8034 36.7295 88.7884 37.1931C88.4354 37.1931 88.0825 37.1931 87.7188 37.1931C87.7174 37.0674 87.7159 36.9417 87.7145 36.8122C87.7063 36.2414 87.6935 35.6708 87.6806 35.1001C87.6784 34.9023 87.6763 34.7045 87.674 34.5007C87.6691 34.31 87.6642 34.1193 87.6591 33.9228C87.6559 33.7474 87.6527 33.572 87.6494 33.3914C87.5493 32.8154 87.3639 32.5578 86.9548 32.147C86.2252 31.9036 85.675 32.0197 84.9684 32.2999C84.4036 32.884 84.3368 33.4638 84.3089 34.2513C84.3024 34.4223 84.296 34.5933 84.2895 34.7695C84.2834 34.948 84.2774 35.1265 84.2712 35.3104C84.2614 35.5808 84.2614 35.5808 84.2513 35.8566C84.235 36.3021 84.2194 36.7476 84.2044 37.1931C83.9019 37.1931 83.5993 37.1931 83.2876 37.1931C83.2876 35.1747 83.2876 33.1562 83.2876 31.0766Z" fill="#161616"/>
<path d="M63.8821 29.0887C68.7589 29.0887 68.7589 29.0887 69.8508 30.1591C70.3482 30.9298 70.4047 31.7039 70.2997 32.6057C70.0904 33.2866 69.8075 33.7262 69.2683 34.1922C68.2478 34.7028 67.2935 34.7909 66.1741 34.7656C65.9965 34.7636 65.9965 34.7636 65.8154 34.7614C65.5274 34.7579 65.2396 34.7524 64.9517 34.7465C64.9517 35.5539 64.9517 36.3613 64.9517 37.1931C64.5987 37.1931 64.2457 37.1931 63.8821 37.1931C63.8821 34.5187 63.8821 31.8442 63.8821 29.0887ZM64.9517 30.0062C64.9517 31.2677 64.9517 32.5293 64.9517 33.829C65.3803 33.8416 65.8089 33.8543 66.2505 33.8673C66.3829 33.8728 66.5154 33.8784 66.6519 33.8841C67.521 33.8964 68.2117 33.7347 68.9245 33.2174C69.3384 32.596 69.4275 32.1519 69.3065 31.4302C69.1329 30.7967 68.8903 30.4971 68.3133 30.1591C67.8818 30.0151 67.6212 29.9882 67.175 29.9912C67.0583 29.9916 66.9416 29.992 66.8213 29.9924C66.6739 29.9938 66.5265 29.9952 66.3746 29.9966C65.9051 29.9998 65.4355 30.0029 64.9517 30.0062Z" fill="#161616"/>
<path d="M77.6337 53.8608C77.6841 53.8608 77.7346 53.8608 77.7865 53.8608C77.8107 53.9954 77.835 54.13 77.8599 54.2687C78.0735 55.3454 78.0735 55.3454 78.541 56.3265C79.1517 56.7007 79.7561 56.8372 80.4533 56.9836C80.8425 57.072 80.8425 57.072 80.9953 57.2249C81.0015 57.5307 81.0018 57.8366 80.9953 58.1424C80.1914 58.2051 79.3875 58.2677 78.5836 58.33C78.3112 58.3511 78.0389 58.3723 77.7666 58.3936C76.0422 58.5282 74.318 58.6522 72.5913 58.754C72.5913 58.2494 72.5913 57.7448 72.5913 57.2249C72.8268 57.1137 72.8268 57.1137 73.067 57.0003C74.791 56.1717 76.3055 55.2599 77.6337 53.8608Z" fill="#161616"/>
<path d="M99.3886 31.325C100.151 31.7708 100.588 32.2953 100.907 33.1313C101.105 34.1576 101.095 35.059 100.554 35.9698C99.9169 36.6589 99.3629 37.1495 98.4032 37.2349C96.5353 37.2875 96.5353 37.2875 95.759 36.6944C95.0754 35.9607 94.7092 35.1173 94.6614 34.1157C94.7117 33.2488 94.9835 32.551 95.5764 31.9122C96.6407 30.9682 98.0822 30.7296 99.3886 31.325ZM96.4675 32.3632C95.9563 32.8993 95.6776 33.3806 95.6385 34.1271C95.7032 34.9181 95.9393 35.4896 96.5141 36.0367C97.1502 36.4448 97.6651 36.526 98.4145 36.4286C98.9814 36.2223 99.3935 35.9317 99.7706 35.4537C100.103 34.6768 100.16 34.0213 99.9306 33.212C99.6678 32.6514 99.2416 32.3109 98.7201 31.994C97.9146 31.7253 97.1421 31.8152 96.4675 32.3632Z" fill="#161616"/>
<path d="M80.1454 31.3346C81.0692 31.8762 81.4921 32.6646 81.7593 33.6761C81.8492 34.5154 81.7326 35.2437 81.3009 35.9698C80.6641 36.6589 80.1101 37.1495 79.1504 37.235C77.3269 37.2863 77.3269 37.2863 76.4955 36.6574C75.7351 35.9232 75.4778 35.1998 75.4468 34.1731C75.4588 33.2661 75.703 32.5809 76.3236 31.9122C77.393 30.9637 78.837 30.729 80.1454 31.3346ZM77.0512 32.5006C76.5163 33.1582 76.3793 33.5893 76.4209 34.4311C76.5199 35.2228 76.7478 35.5825 77.3281 36.1228C77.7898 36.4733 78.2677 36.493 78.8418 36.477C79.5425 36.371 80.0437 36.0168 80.5274 35.5015C80.7835 34.7928 80.7891 34.1142 80.6897 33.3703C80.3884 32.7672 80.0593 32.3251 79.4673 31.9941C78.5342 31.7243 77.8013 31.8834 77.0512 32.5006Z" fill="#161616"/>
<path d="M110.18 31.0766C110.483 31.0766 110.786 31.0766 111.097 31.0766C111.148 31.2784 111.198 31.4803 111.25 31.6882C111.417 31.5873 111.584 31.4864 111.756 31.3824C112.707 30.9073 113.679 30.9213 114.678 31.2486C115.284 31.6919 115.599 32.2052 115.834 32.9116C115.847 33.2385 115.85 33.5658 115.849 33.893C115.848 34.0847 115.848 34.2763 115.847 34.4739C115.846 34.7744 115.846 34.7744 115.844 35.081C115.843 35.2852 115.842 35.4894 115.841 35.6936C115.84 36.1934 115.837 36.6933 115.834 37.1932C115.531 37.1932 115.229 37.1932 114.917 37.1932C114.915 37.0775 114.913 36.9619 114.91 36.8428C114.899 36.316 114.884 35.7893 114.869 35.2626C114.866 35.0807 114.863 34.8987 114.859 34.7113C114.845 33.4315 114.845 33.4315 114.306 32.2999C113.738 31.9537 113.151 31.9839 112.511 32.0801C111.95 32.3283 111.729 32.5505 111.403 33.0645C111.248 33.5305 111.22 33.8821 111.202 34.3708C111.195 34.5349 111.189 34.699 111.182 34.8681C111.173 35.1249 111.173 35.1249 111.164 35.3869C111.157 35.5598 111.151 35.7328 111.144 35.911C111.128 36.3384 111.112 36.7658 111.097 37.1932C110.795 37.1932 110.492 37.1932 110.18 37.1932C110.18 35.1747 110.18 33.1562 110.18 31.0766Z" fill="#161616"/>
<path d="M102.693 29.8533C102.995 29.8533 103.298 29.8533 103.61 29.8533C103.61 30.257 103.61 30.6607 103.61 31.0766C104.215 31.0766 104.82 31.0766 105.443 31.0766C105.443 31.3289 105.443 31.5812 105.443 31.8412C104.838 31.8412 104.233 31.8412 103.61 31.8412C103.627 32.523 103.646 33.2047 103.667 33.8864C103.672 34.0807 103.676 34.2751 103.681 34.4753C103.687 34.6606 103.693 34.8459 103.699 35.0368C103.704 35.2082 103.709 35.3796 103.714 35.5561C103.722 35.9923 103.722 35.9923 104.068 36.2757C104.608 36.3109 105.079 36.2821 105.596 36.1228C105.647 36.3751 105.697 36.6274 105.749 36.8873C105.069 37.3408 104.407 37.2912 103.61 37.1932C103.151 36.9177 102.929 36.7492 102.693 36.2757C102.68 35.9426 102.677 35.6091 102.678 35.2758C102.679 34.9771 102.679 34.9771 102.679 34.6725C102.681 34.4614 102.682 34.2504 102.683 34.0393C102.684 33.8271 102.685 33.6148 102.685 33.4026C102.687 32.8821 102.69 32.3616 102.693 31.8412C102.34 31.8412 101.987 31.8412 101.623 31.8412C101.623 31.5888 101.623 31.3365 101.623 31.0766C101.976 31.0766 102.329 31.0766 102.693 31.0766C102.693 30.6729 102.693 30.2692 102.693 29.8533Z" fill="#161616"/>
<path d="M71.6746 31.0766C71.9771 31.0766 72.2796 31.0766 72.5914 31.0766C72.6418 31.2784 72.6922 31.4803 72.7442 31.6882C72.9758 31.5368 72.9758 31.5368 73.2121 31.3824C73.7802 31.0529 74.2247 31.0228 74.8834 31.0766C74.8834 31.3793 74.8834 31.6821 74.8834 31.9941C74.7451 32.0139 74.7451 32.0139 74.604 32.0341C73.7832 32.178 73.7832 32.178 73.1262 32.6726C72.7859 33.2543 72.7203 33.7081 72.6958 34.3708C72.6894 34.5349 72.683 34.699 72.6764 34.8681C72.6674 35.1249 72.6674 35.1249 72.6582 35.3868C72.6516 35.5598 72.645 35.7328 72.6382 35.911C72.622 36.3384 72.6064 36.7657 72.5914 37.1931C72.2888 37.1931 71.9863 37.1931 71.6746 37.1931C71.6746 35.1747 71.6746 33.1562 71.6746 31.0766Z" fill="#161616"/>
<path d="M107.124 31.0765C107.427 31.0765 107.729 31.0765 108.041 31.0765C108.041 33.095 108.041 35.1135 108.041 37.1931C107.738 37.1931 107.436 37.1931 107.124 37.1931C107.124 35.1746 107.124 33.1562 107.124 31.0765Z" fill="#161616"/>
<path d="M107.277 28.6299C107.755 28.6873 107.755 28.6873 108.194 28.7829C108.201 29.0886 108.2 29.3946 108.194 29.7003C108.041 29.8533 108.041 29.8533 107.583 29.8724C107.124 29.8533 107.124 29.8533 106.972 29.7003C106.943 29.3276 106.943 29.3276 106.972 28.9358C107.073 28.8348 107.173 28.7339 107.277 28.6299Z" fill="#161616"/>
</svg>
